<?xml version="1.0" encoding="UTF-8"?>
<!DOCTYPE svg PUBLIC "-//W3C//DTD SVG 1.1//EN" "http://www.w3.org/Graphics/SVG/1.1/DTD/svg11.dtd">
<svg xmlns="http://www.w3.org/2000/svg" version="1.1" width="750px" height="750px" style="shape-rendering:geometricPrecision; text-rendering:geometricPrecision; image-rendering:optimizeQuality; fill-rule:evenodd; clip-rule:evenodd" xmlns:xlink="http://www.w3.org/1999/xlink">
<g><path style="opacity:0.425" fill="#d4d4d4" d="M 408.5,1.5 C 401.267,2.32212 393.934,3.32212 386.5,4.5C 387.398,3.84233 388.398,3.17566 389.5,2.5C 395.798,1.50367 402.132,1.17033 408.5,1.5 Z"/></g>
<g><path style="opacity:1" fill="#818181" d="M 419.5,4.5 C 422.89,4.51132 425.556,5.84465 427.5,8.5C 429.385,9.60936 431.385,10.4427 433.5,11C 438.695,15.3656 443.695,19.8656 448.5,24.5C 451.905,30.212 455.239,35.8786 458.5,41.5C 459.167,41.5 459.5,41.8333 459.5,42.5C 460.221,46.6886 461.887,50.3552 464.5,53.5C 466.62,58.2978 468.287,63.2978 469.5,68.5C 469.755,72.8003 470.755,76.8003 472.5,80.5C 473.928,83.3033 474.595,86.3033 474.5,89.5C 474.927,93.8244 475.261,98.1578 475.5,102.5C 466.988,102.2 458.655,101.533 450.5,100.5C 453.167,100.5 455.833,100.5 458.5,100.5C 458.607,94.1202 458.107,87.7869 457,81.5C 452.668,68.9314 448.334,56.2647 444,43.5C 439.93,36.3652 435.597,29.3652 431,22.5C 424.571,16.5587 418.071,10.8921 411.5,5.5C 409.915,4.99762 409.415,3.99762 410,2.5C 412.951,4.07612 416.117,4.74279 419.5,4.5 Z"/></g>
<g><path style="opacity:1" fill="#9c9c9c" d="M 408.5,1.5 C 409.5,1.5 410.5,1.5 411.5,1.5C 414.167,2.5 416.833,3.5 419.5,4.5C 416.117,4.74279 412.951,4.07612 410,2.5C 409.415,3.99762 409.915,4.99762 411.5,5.5C 411.02,11.191 410.354,16.8577 409.5,22.5C 395.181,21.2793 380.848,20.2793 366.5,19.5C 366.557,18.391 366.89,17.391 367.5,16.5C 371.749,14.9118 375.082,12.2451 377.5,8.5C 381.36,8.67428 384.36,7.34095 386.5,4.5C 393.934,3.32212 401.267,2.32212 408.5,1.5 Z"/></g>
<g><path style="opacity:0.132" fill="#e5e5e5" d="M 386.5,4.5 C 384.36,7.34095 381.36,8.67428 377.5,8.5C 379.712,5.64229 382.712,4.30895 386.5,4.5 Z"/></g>
<g><path style="opacity:1" fill="#8b8b8b" d="M 411.5,5.5 C 418.071,10.8921 424.571,16.5587 431,22.5C 435.597,29.3652 439.93,36.3652 444,43.5C 448.334,56.2647 452.668,68.9314 457,81.5C 458.107,87.7869 458.607,94.1202 458.5,100.5C 455.833,100.5 453.167,100.5 450.5,100.5C 447.15,100.335 443.817,100.502 440.5,101C 438.225,102.366 436.558,103.533 435.5,104.5C 435.611,105.117 435.944,105.617 436.5,106C 444.527,106.605 452.527,107.438 460.5,108.5C 461.903,113.392 462.57,118.392 462.5,123.5C 447.246,121.175 431.913,119.508 416.5,118.5C 407.064,117.332 397.731,116.332 388.5,115.5C 391.833,115.5 395.167,115.5 398.5,115.5C 398.503,110.473 398.836,105.473 399.5,100.5C 408.175,101.353 416.842,102.353 425.5,103.5C 428.229,103.495 430.229,102.329 431.5,100C 430.692,99.6924 430.025,99.1924 429.5,98.5C 415.38,96.641 401.38,94.9743 387.5,93.5C 392.214,93.3531 396.881,93.6864 401.5,94.5C 402.012,81.7414 403.345,69.0748 405.5,56.5C 408.246,58.1264 411.246,58.7931 414.5,58.5C 415.265,53.0936 412.931,51.0936 407.5,52.5C 407.649,53.552 407.483,54.552 407,55.5C 404.609,54.61 403.109,52.9433 402.5,50.5C 406.799,51.964 410.799,51.2974 414.5,48.5C 415.386,47.675 415.719,46.675 415.5,45.5C 412.756,45.2479 410.256,45.9145 408,47.5C 406.349,46.2576 404.515,45.4243 402.5,45C 396.975,44.4804 391.642,43.6471 386.5,42.5C 394.034,42.7758 401.534,43.4424 409,44.5C 411.333,44.4168 413.166,43.4168 414.5,41.5C 415.524,42.8532 416.857,43.5198 418.5,43.5C 418.5,44.5 418.5,45.5 418.5,46.5C 424.158,47.3206 425.825,45.154 423.5,40C 415.981,39.4865 408.648,38.6532 401.5,37.5C 403.833,37.5 406.167,37.5 408.5,37.5C 408.5,35.1667 408.5,32.8333 408.5,30.5C 411.833,30.5 415.167,30.5 418.5,30.5C 418.739,28.5328 418.406,26.6995 417.5,25C 400.526,23.1687 383.526,21.6687 366.5,20.5C 366.5,20.1667 366.5,19.8333 366.5,19.5C 380.848,20.2793 395.181,21.2793 409.5,22.5C 410.354,16.8577 411.02,11.191 411.5,5.5 Z"/></g>
<g><path style="opacity:0.055" fill="#e3e3e3" d="M 377.5,8.5 C 375.082,12.2451 371.749,14.9118 367.5,16.5C 367.859,14.629 368.859,13.129 370.5,12C 372.886,10.8068 375.22,9.64011 377.5,8.5 Z"/></g>
<g><path style="opacity:0.016" fill="#d9d9d9" d="M 411.5,1.5 C 415.226,1.17744 418.893,1.51078 422.5,2.5C 427.35,4.42688 432.016,6.59354 436.5,9C 441.306,13.8063 446.14,18.6396 451,23.5C 452.438,24.9003 453.271,26.567 453.5,28.5C 451.833,27.1667 450.167,25.8333 448.5,24.5C 443.695,19.8656 438.695,15.3656 433.5,11C 431.385,10.4427 429.385,9.60936 427.5,8.5C 425.556,5.84465 422.89,4.51132 419.5,4.5C 416.833,3.5 414.167,2.5 411.5,1.5 Z"/></g>
<g><path style="opacity:0.153" fill="#e3e3e3" d="M 367.5,16.5 C 366.89,17.391 366.557,18.391 366.5,19.5C 364.606,20.0476 362.94,21.0476 361.5,22.5C 360.027,26.3133 357.36,28.6466 353.5,29.5C 356.906,23.7592 361.572,19.4259 367.5,16.5 Z"/></g>
<g><path style="opacity:1" fill="#757575" d="M 366.5,20.5 C 383.526,21.6687 400.526,23.1687 417.5,25C 418.406,26.6995 418.739,28.5328 418.5,30.5C 415.167,30.5 411.833,30.5 408.5,30.5C 402.383,29.1208 396.05,28.4541 389.5,28.5C 386.5,27.8333 383.5,27.1667 380.5,26.5C 375.668,25.6004 370.668,24.9338 365.5,24.5C 365.232,22.901 365.566,21.5676 366.5,20.5 Z"/></g>
<g><path style="opacity:1" fill="#a9a9a9" d="M 380.5,26.5 C 383.5,27.1667 386.5,27.8333 389.5,28.5C 389.548,31.2919 388.215,33.1253 385.5,34C 380.845,34.4992 376.179,34.6658 371.5,34.5C 370.602,33.8423 369.602,33.1757 368.5,32.5C 370.95,27.3802 374.95,25.3802 380.5,26.5 Z"/></g>
<g><path style="opacity:1" fill="#989898" d="M 389.5,28.5 C 396.05,28.4541 402.383,29.1208 408.5,30.5C 408.5,32.8333 408.5,35.1667 408.5,37.5C 406.167,37.5 403.833,37.5 401.5,37.5C 391.291,37.1517 381.291,36.1517 371.5,34.5C 376.179,34.6658 380.845,34.4992 385.5,34C 388.215,33.1253 389.548,31.2919 389.5,28.5 Z"/></g>
<g><path style="opacity:1" fill="#747474" d="M 371.5,34.5 C 381.291,36.1517 391.291,37.1517 401.5,37.5C 408.648,38.6532 415.981,39.4865 423.5,40C 425.825,45.154 424.158,47.3206 418.5,46.5C 418.5,45.5 418.5,44.5 418.5,43.5C 416.857,43.5198 415.524,42.8532 414.5,41.5C 413.166,43.4168 411.333,44.4168 409,44.5C 401.534,43.4424 394.034,42.7758 386.5,42.5C 383.038,41.5184 379.371,41.185 375.5,41.5C 368.99,39.6964 362.157,38.363 355,37.5C 354.316,36.2161 354.483,35.0495 355.5,34C 360.861,33.3914 366.195,33.5581 371.5,34.5 Z"/></g>
<g><path style="opacity:0.259" fill="#c3c3c3" d="M 448.5,24.5 C 450.167,25.8333 451.833,27.1667 453.5,28.5C 454.925,29.922 455.925,31.5887 456.5,33.5C 457.167,36.1667 457.833,38.8333 458.5,41.5C 455.239,35.8786 451.905,30.212 448.5,24.5 Z"/></g>
<g><path style="opacity:0.069" fill="#e4e4e4" d="M 456.5,33.5 C 458.924,36.0078 460.59,39.0078 461.5,42.5C 460.833,42.5 460.167,42.5 459.5,42.5C 459.5,41.8333 459.167,41.5 458.5,41.5C 457.833,38.8333 457.167,36.1667 456.5,33.5 Z"/></g>
<g><path style="opacity:1" fill="#aaaaaa" d="M 375.5,41.5 C 375.371,43.2161 375.038,44.8828 374.5,46.5C 370.833,46.5 367.167,46.5 363.5,46.5C 362.081,45.5489 360.415,45.2155 358.5,45.5C 358.297,43.6096 358.963,42.1096 360.5,41C 365.478,41.051 370.478,41.2177 375.5,41.5 Z"/></g>
<g><path style="opacity:1" fill="#9a9a9a" d="M 375.5,41.5 C 379.371,41.185 383.038,41.5184 386.5,42.5C 391.642,43.6471 396.975,44.4804 402.5,45C 404.515,45.4243 406.349,46.2576 408,47.5C 410.256,45.9145 412.756,45.2479 415.5,45.5C 415.719,46.675 415.386,47.675 414.5,48.5C 410.799,51.2974 406.799,51.964 402.5,50.5C 393.175,49.1068 383.842,47.7735 374.5,46.5C 375.038,44.8828 375.371,43.2161 375.5,41.5 Z"/></g>
<g><path style="opacity:0.388" fill="#b9b9b9" d="M 459.5,42.5 C 460.167,42.5 460.833,42.5 461.5,42.5C 461.5,42.8333 461.5,43.1667 461.5,43.5C 462.799,46.6838 463.799,50.0171 464.5,53.5C 461.887,50.3552 460.221,46.6886 459.5,42.5 Z"/></g>
<g><path style="opacity:1" fill="#737373" d="M 363.5,46.5 C 372.936,48.3471 382.603,49.5138 392.5,50C 395.5,50.8333 398.5,51.6667 401.5,52.5C 400.372,54.5563 398.538,55.5563 396,55.5C 385.55,53.7648 375.05,52.4315 364.5,51.5C 358.178,50.986 351.845,50.6527 345.5,50.5C 345.5,48.8333 345.5,47.1667 345.5,45.5C 351.523,45.502 357.523,45.8354 363.5,46.5 Z"/></g>
<g><path style="opacity:1" fill="#808080" d="M 363.5,46.5 C 367.167,46.5 370.833,46.5 374.5,46.5C 383.842,47.7735 393.175,49.1068 402.5,50.5C 403.109,52.9433 404.609,54.61 407,55.5C 407.483,54.552 407.649,53.552 407.5,52.5C 412.931,51.0936 415.265,53.0936 414.5,58.5C 411.246,58.7931 408.246,58.1264 405.5,56.5C 392.736,56.3771 380.069,55.3771 367.5,53.5C 366.791,52.596 365.791,52.2627 364.5,52.5C 364.5,52.1667 364.5,51.8333 364.5,51.5C 375.05,52.4315 385.55,53.7648 396,55.5C 398.538,55.5563 400.372,54.5563 401.5,52.5C 398.5,51.6667 395.5,50.8333 392.5,50C 382.603,49.5138 372.936,48.3471 363.5,46.5 Z"/></g>
<g><path style="opacity:0.985" fill="#e9e9e9" d="M 352.5,30.5 C 353.465,31.7211 353.298,33.0544 352,34.5C 334.395,56.6767 322.228,81.6767 315.5,109.5C 314.034,110.347 313.2,111.68 313,113.5C 312.304,116.478 311.804,119.478 311.5,122.5C 311.371,124.216 311.038,125.883 310.5,127.5C 308.627,131.515 307.627,135.849 307.5,140.5C 305.521,148.335 304.521,156.335 304.5,164.5C 301.167,164.5 297.833,164.5 294.5,164.5C 294.167,164.5 293.833,164.5 293.5,164.5C 289.081,163.028 284.414,162.362 279.5,162.5C 278.5,162.5 277.5,162.5 276.5,162.5C 276.082,161.778 275.416,161.278 274.5,161C 266.504,160.056 258.504,159.223 250.5,158.5C 246.215,157.705 241.881,157.372 237.5,157.5C 236.833,157.5 236.167,157.5 235.5,157.5C 235.082,156.778 234.416,156.278 233.5,156C 226.533,155.003 219.533,154.503 212.5,154.5C 202.799,151.938 192.799,150.604 182.5,150.5C 180.052,149.527 177.385,149.194 174.5,149.5C 167.853,147.021 160.853,146.021 153.5,146.5C 147.869,145.588 142.202,144.921 136.5,144.5C 135.833,144.5 135.5,144.167 135.5,143.5C 141.597,139.903 146.93,135.403 151.5,130C 157.415,127.079 162.415,123.079 166.5,118C 178.154,109.994 190.487,102.161 203.5,94.5C 239.209,75.6971 276.209,62.6971 314.5,55.5C 321.146,54.5026 327.812,53.6693 334.5,53C 335.416,52.6258 336.25,52.1258 337,51.5C 341.23,43.7759 346.396,36.7759 352.5,30.5 Z"/></g>
<g><path style="opacity:1" fill="#aaaaaa" d="M 364.5,52.5 C 365.791,52.2627 366.791,52.596 367.5,53.5C 365.665,59.0085 361.998,62.3418 356.5,63.5C 355.5,63.5 354.5,63.5 353.5,63.5C 351.166,62.8763 348.833,62.043 346.5,61C 347.522,58.4552 348.688,55.9552 350,53.5C 354.737,52.5308 359.57,52.1975 364.5,52.5 Z"/></g>
<g><path style="opacity:1" fill="#9a9a9a" d="M 367.5,53.5 C 380.069,55.3771 392.736,56.3771 405.5,56.5C 403.345,69.0748 402.012,81.7414 401.5,94.5C 396.881,93.6864 392.214,93.3531 387.5,93.5C 371.86,92.5017 356.527,90.5017 341.5,87.5C 343.604,87.7989 345.604,87.4656 347.5,86.5C 350.325,80.6471 353.325,74.9804 356.5,69.5C 369.592,72.3207 382.925,73.4873 396.5,73C 397.833,71.6667 397.833,70.3333 396.5,69C 382.979,67.4783 369.646,65.645 356.5,63.5C 361.998,62.3418 365.665,59.0085 367.5,53.5 Z"/></g>
<g><path style="opacity:1" fill="#767676" d="M 353.5,63.5 C 354.5,63.5 355.5,63.5 356.5,63.5C 369.646,65.645 382.979,67.4783 396.5,69C 397.833,70.3333 397.833,71.6667 396.5,73C 382.925,73.4873 369.592,72.3207 356.5,69.5C 352.865,68.8857 349.198,68.5524 345.5,68.5C 342.023,67.6773 338.356,67.1773 334.5,67C 333.269,65.8173 333.269,64.6507 334.5,63.5C 340.798,62.5238 347.131,62.5238 353.5,63.5 Z"/></g>
<g><path style="opacity:0.994" fill="#e9e9e9" d="M 461.5,43.5 C 462.496,43.4142 463.329,43.7476 464,44.5C 466.25,51.3204 468.75,57.987 471.5,64.5C 549.937,88.6637 613.103,134.664 661,202.5C 714.624,285.059 731.957,375.059 713,472.5C 704.313,509.565 690.813,544.231 672.5,576.5C 665.175,588.475 657.342,600.141 649,611.5C 643.719,616.06 639.386,621.394 636,627.5C 628.223,636.279 620.056,644.779 611.5,653C 610.5,653.333 609.5,653.667 608.5,654C 589.744,672.06 569.077,687.727 546.5,701C 465.24,745.24 379.24,757.073 288.5,736.5C 165.246,701.761 82.7455,623.427 41,501.5C 15.3798,412.285 22.3798,326.285 62,243.5C 70.9372,226.603 80.6039,210.269 91,194.5C 92,193.833 93,193.167 94,192.5C 99.2334,183.932 105.233,175.932 112,168.5C 117.958,163.227 123.458,157.561 128.5,151.5C 128.337,153.857 128.503,156.19 129,158.5C 129.383,159.056 129.883,159.389 130.5,159.5C 132.174,171.049 135.174,182.049 139.5,192.5C 141.071,194.635 142.404,196.968 143.5,199.5C 156.127,225.799 175.794,244.466 202.5,255.5C 208.073,258.353 214.073,260.02 220.5,260.5C 220.833,260.5 221.167,260.5 221.5,260.5C 227.288,261.81 233.288,262.477 239.5,262.5C 239.833,262.5 240.167,262.5 240.5,262.5C 244.545,264.177 248.878,264.844 253.5,264.5C 256.287,265.477 259.287,265.81 262.5,265.5C 263.018,266.577 263.352,267.744 263.5,269C 261.916,274.924 260.083,280.757 258,286.5C 257.268,291.661 256.434,296.661 255.5,301.5C 254.834,306.489 254.501,311.656 254.5,317C 254.316,324.728 254.983,332.228 256.5,339.5C 259.977,354.21 265.477,368.21 273,381.5C 278.012,385.85 282.345,390.85 286,396.5C 286,397.833 286,399.167 286,400.5C 286.414,400.043 286.914,399.709 287.5,399.5C 293.387,404.231 299.053,409.065 304.5,414C 307.05,415.442 309.716,416.608 312.5,417.5C 316.513,421.793 321.513,424.293 327.5,425C 328.167,426.333 329.167,427.333 330.5,428C 387.071,445.063 433.571,430.896 470,385.5C 474.74,378.568 478.907,371.235 482.5,363.5C 491.604,341.564 493.938,318.898 489.5,295.5C 485.828,294.955 486.162,294.622 490.5,294.5C 491.5,294.5 492.5,294.5 493.5,294.5C 500.203,296.67 507.203,297.67 514.5,297.5C 515.167,297.5 515.833,297.5 516.5,297.5C 521.234,299.145 526.234,299.811 531.5,299.5C 540.324,300.657 549.324,300.824 558.5,300C 562.179,299.974 565.512,299.14 568.5,297.5C 569.167,297.5 569.833,297.5 570.5,297.5C 575.842,296.838 580.509,294.838 584.5,291.5C 590.943,288.313 597.276,284.98 603.5,281.5C 605.932,280.25 608.266,278.75 610.5,277C 611.823,276.184 612.489,275.017 612.5,273.5C 615.51,270.126 618.51,266.792 621.5,263.5C 625.413,261.256 627.747,257.923 628.5,253.5C 631.131,245.909 633.465,238.243 635.5,230.5C 637.39,228.087 639.557,225.754 642,223.5C 642.667,219.5 642.667,215.5 642,211.5C 640.871,209.859 639.371,208.859 637.5,208.5C 635.236,207.781 632.903,207.448 630.5,207.5C 629.833,207.5 629.167,207.5 628.5,207.5C 621.098,205.492 613.432,204.492 605.5,204.5C 601.02,203.479 596.353,202.813 591.5,202.5C 590.666,201.252 589.333,200.585 587.5,200.5C 582.42,200.074 577.42,199.24 572.5,198C 566.843,197.501 561.176,197.334 555.5,197.5C 555.167,197.5 554.833,197.5 554.5,197.5C 554.082,196.778 553.416,196.278 552.5,196C 546.194,195.103 539.861,194.603 533.5,194.5C 518.905,192.034 504.238,190.034 489.5,188.5C 486.003,187.598 482.337,186.931 478.5,186.5C 480.376,164.538 480.876,142.538 480,120.5C 479.79,118.942 479.29,117.609 478.5,116.5C 478.053,107.236 476.72,98.2355 474.5,89.5C 474.595,86.3033 473.928,83.3033 472.5,80.5C 472.245,76.1997 471.245,72.1997 469.5,68.5C 468.287,63.2978 466.62,58.2978 464.5,53.5C 463.799,50.0171 462.799,46.6838 461.5,43.5 Z"/></g>
<g><path style="opacity:1" fill="#aaaaaa" d="M 345.5,68.5 C 349.198,68.5524 352.865,68.8857 356.5,69.5C 353.325,74.9804 350.325,80.6471 347.5,86.5C 345.604,87.4656 343.604,87.7989 341.5,87.5C 338.615,87.8064 335.948,87.4731 333.5,86.5C 335.416,80.6606 337.916,74.9939 341,69.5C 342.356,68.6198 343.856,68.2865 345.5,68.5 Z"/></g>
<g><path style="opacity:1" fill="#afafaf" d="M 469.5,68.5 C 471.245,72.1997 472.245,76.1997 472.5,80.5C 470.755,76.8003 469.755,72.8003 469.5,68.5 Z"/></g>
<g><path style="opacity:1" fill="#999999" d="M 451.5,79.5 C 456.269,80.7005 457.102,83.0339 454,86.5C 449.497,87.9957 446.831,90.9957 446,95.5C 442.96,98.9663 439.126,100.3 434.5,99.5C 434.351,98.448 434.517,97.448 435,96.5C 440.724,90.944 446.224,85.2774 451.5,79.5 Z"/></g>
<g><path style="opacity:1" fill="#757575" d="M 333.5,86.5 C 335.948,87.4731 338.615,87.8064 341.5,87.5C 356.527,90.5017 371.86,92.5017 387.5,93.5C 401.38,94.9743 415.38,96.641 429.5,98.5C 430.025,99.1924 430.692,99.6924 431.5,100C 430.229,102.329 428.229,103.495 425.5,103.5C 416.842,102.353 408.175,101.353 399.5,100.5C 397.379,100.675 395.379,100.341 393.5,99.5C 376.399,96.6798 359.066,94.6798 341.5,93.5C 336.025,92.5111 330.358,92.1778 324.5,92.5C 324.261,90.5328 324.594,88.6995 325.5,87C 328.146,86.5026 330.813,86.3359 333.5,86.5 Z"/></g>
<g><path style="opacity:1" fill="#aaaaaa" d="M 341.5,94.5 C 341.833,94.5 342.167,94.5 342.5,94.5C 343.803,97.1194 343.303,99.4528 341,101.5C 340.503,103.81 340.337,106.143 340.5,108.5C 338.5,108.5 336.5,108.5 334.5,108.5C 333.167,108.5 331.833,108.5 330.5,108.5C 329.432,107.566 328.099,107.232 326.5,107.5C 327.126,102.789 328.459,98.2892 330.5,94C 334.109,94.2384 337.775,94.4051 341.5,94.5 Z"/></g>
<g><path style="opacity:1" fill="#9a9a9a" d="M 342.5,94.5 C 359.41,96.9757 376.41,98.6424 393.5,99.5C 395.379,100.341 397.379,100.675 399.5,100.5C 398.836,105.473 398.503,110.473 398.5,115.5C 395.167,115.5 391.833,115.5 388.5,115.5C 374.262,113.603 359.928,112.103 345.5,111C 341.831,109.907 338.164,109.074 334.5,108.5C 336.5,108.5 338.5,108.5 340.5,108.5C 340.337,106.143 340.503,103.81 341,101.5C 343.303,99.4528 343.803,97.1194 342.5,94.5 Z"/></g>
<g><path style="opacity:1" fill="#828282" d="M 341.5,94.5 C 341.5,94.1667 341.5,93.8333 341.5,93.5C 359.066,94.6798 376.399,96.6798 393.5,99.5C 376.41,98.6424 359.41,96.9757 342.5,94.5C 342.167,94.5 341.833,94.5 341.5,94.5 Z"/></g>
<g><path style="opacity:1" fill="#737373" d="M 450.5,100.5 C 458.655,101.533 466.988,102.2 475.5,102.5C 476.341,104.379 476.675,106.379 476.5,108.5C 462.89,106.795 449.223,105.461 435.5,104.5C 436.558,103.533 438.225,102.366 440.5,101C 443.817,100.502 447.15,100.335 450.5,100.5 Z"/></g>
<g><path style="opacity:1" fill="#9b9b9b" d="M 366.5,19.5 C 366.5,19.8333 366.5,20.1667 366.5,20.5C 365.566,21.5676 365.232,22.901 365.5,24.5C 370.668,24.9338 375.668,25.6004 380.5,26.5C 374.95,25.3802 370.95,27.3802 368.5,32.5C 369.602,33.1757 370.602,33.8423 371.5,34.5C 366.195,33.5581 360.861,33.3914 355.5,34C 354.483,35.0495 354.316,36.2161 355,37.5C 362.157,38.363 368.99,39.6964 375.5,41.5C 370.478,41.2177 365.478,41.051 360.5,41C 358.963,42.1096 358.297,43.6096 358.5,45.5C 360.415,45.2155 362.081,45.5489 363.5,46.5C 357.523,45.8354 351.523,45.502 345.5,45.5C 345.5,47.1667 345.5,48.8333 345.5,50.5C 351.845,50.6527 358.178,50.986 364.5,51.5C 364.5,51.8333 364.5,52.1667 364.5,52.5C 359.57,52.1975 354.737,52.5308 350,53.5C 348.688,55.9552 347.522,58.4552 346.5,61C 348.833,62.043 351.166,62.8763 353.5,63.5C 347.131,62.5238 340.798,62.5238 334.5,63.5C 333.269,64.6507 333.269,65.8173 334.5,67C 338.356,67.1773 342.023,67.6773 345.5,68.5C 343.856,68.2865 342.356,68.6198 341,69.5C 337.916,74.9939 335.416,80.6606 333.5,86.5C 330.813,86.3359 328.146,86.5026 325.5,87C 324.594,88.6995 324.261,90.5328 324.5,92.5C 330.358,92.1778 336.025,92.5111 341.5,93.5C 341.5,93.8333 341.5,94.1667 341.5,94.5C 337.775,94.4051 334.109,94.2384 330.5,94C 328.459,98.2892 327.126,102.789 326.5,107.5C 328.099,107.232 329.432,107.566 330.5,108.5C 326.181,107.751 321.848,107.585 317.5,108C 316.167,109.333 316.167,110.667 317.5,112C 324.39,112.203 331.057,113.036 337.5,114.5C 333.167,114.5 328.833,114.5 324.5,114.5C 324.014,119.93 323.014,125.263 321.5,130.5C 321.863,131.183 322.196,131.85 322.5,132.5C 318.888,131.489 315.221,131.322 311.5,132C 310.167,133.333 310.167,134.667 311.5,136C 317.734,136.178 323.734,137.012 329.5,138.5C 325.833,138.5 322.167,138.5 318.5,138.5C 318.5,143.5 318.5,148.5 318.5,153.5C 320.099,153.232 321.432,153.566 322.5,154.5C 317.195,153.806 311.862,153.472 306.5,153.5C 306.5,155.167 306.5,156.833 306.5,158.5C 334.355,161.97 362.355,165.137 390.5,168C 391.056,168.383 391.389,168.883 391.5,169.5C 391.46,174.862 388.794,176.862 383.5,175.5C 381.833,175.5 380.167,175.5 378.5,175.5C 375.287,175.81 372.287,175.477 369.5,174.5C 363.361,173.103 357.027,172.103 350.5,171.5C 345.527,170.836 340.527,170.503 335.5,170.5C 331.119,168.789 326.453,168.123 321.5,168.5C 313.061,166.806 304.395,166.139 295.5,166.5C 295.167,165.833 294.833,165.167 294.5,164.5C 297.833,164.5 301.167,164.5 304.5,164.5C 304.521,156.335 305.521,148.335 307.5,140.5C 309.118,136.425 310.118,132.092 310.5,127.5C 311.038,125.883 311.371,124.216 311.5,122.5C 313.324,118.435 314.658,114.102 315.5,109.5C 322.228,81.6767 334.395,56.6767 352,34.5C 353.298,33.0544 353.465,31.7211 352.5,30.5C 352.5,29.8333 352.833,29.5 353.5,29.5C 357.36,28.6466 360.027,26.3133 361.5,22.5C 362.94,21.0476 364.606,20.0476 366.5,19.5 Z"/></g>
<g><path style="opacity:1" fill="#767676" d="M 330.5,108.5 C 331.833,108.5 333.167,108.5 334.5,108.5C 338.164,109.074 341.831,109.907 345.5,111C 359.928,112.103 374.262,113.603 388.5,115.5C 397.731,116.332 407.064,117.332 416.5,118.5C 436.607,121.846 456.94,124.179 477.5,125.5C 477.5,127.167 477.5,128.833 477.5,130.5C 472.473,130.497 467.473,130.164 462.5,129.5C 440.591,127.107 418.591,124.44 396.5,121.5C 395.737,120.732 394.737,120.232 393.5,120C 377.795,118.573 362.128,117.073 346.5,115.5C 343.57,114.701 340.57,114.368 337.5,114.5C 331.057,113.036 324.39,112.203 317.5,112C 316.167,110.667 316.167,109.333 317.5,108C 321.848,107.585 326.181,107.751 330.5,108.5 Z"/></g>
<g><path style="opacity:1" fill="#ababab" d="M 337.5,114.5 C 340.57,114.368 343.57,114.701 346.5,115.5C 345.498,117.011 344.831,118.678 344.5,120.5C 343.167,120.5 341.833,120.5 340.5,120.5C 340.5,121.5 340.5,122.5 340.5,123.5C 339.5,123.5 338.5,123.5 337.5,123.5C 336.172,126.356 335.172,129.356 334.5,132.5C 331.5,132.5 328.5,132.5 325.5,132.5C 324.5,132.5 323.5,132.5 322.5,132.5C 322.196,131.85 321.863,131.183 321.5,130.5C 323.014,125.263 324.014,119.93 324.5,114.5C 328.833,114.5 333.167,114.5 337.5,114.5 Z"/></g>
<g><path style="opacity:1" fill="#9a9a9a" d="M 474.5,89.5 C 476.72,98.2355 478.053,107.236 478.5,116.5C 478.5,116.833 478.5,117.167 478.5,117.5C 477.087,114.781 476.42,111.781 476.5,108.5C 476.675,106.379 476.341,104.379 475.5,102.5C 475.261,98.1578 474.927,93.8244 474.5,89.5 Z"/></g>
<g><path style="opacity:1" fill="#999999" d="M 346.5,115.5 C 362.128,117.073 377.795,118.573 393.5,120C 394.737,120.232 395.737,120.732 396.5,121.5C 396.145,126.849 395.978,132.182 396,137.5C 397.64,133.722 398.807,133.722 399.5,137.5C 400.675,137.281 401.675,137.614 402.5,138.5C 401.007,139.141 400.007,140.141 399.5,141.5C 375.181,138.817 350.848,136.317 326.5,134C 325.944,133.617 325.611,133.117 325.5,132.5C 328.5,132.5 331.5,132.5 334.5,132.5C 335.172,129.356 336.172,126.356 337.5,123.5C 338.5,123.5 339.5,123.5 340.5,123.5C 340.5,122.5 340.5,121.5 340.5,120.5C 341.833,120.5 343.167,120.5 344.5,120.5C 344.831,118.678 345.498,117.011 346.5,115.5 Z"/></g>
<g><path style="opacity:1" fill="#b8b8b8" d="M 315.5,109.5 C 314.658,114.102 313.324,118.435 311.5,122.5C 311.804,119.478 312.304,116.478 313,113.5C 313.2,111.68 314.034,110.347 315.5,109.5 Z"/></g>
<g><path style="opacity:1" fill="#8b8b8b" d="M 396.5,121.5 C 418.591,124.44 440.591,127.107 462.5,129.5C 462.5,135.833 462.5,142.167 462.5,148.5C 460.5,148.5 458.5,148.5 456.5,148.5C 437.588,145.806 418.588,143.472 399.5,141.5C 400.007,140.141 401.007,139.141 402.5,138.5C 401.675,137.614 400.675,137.281 399.5,137.5C 398.807,133.722 397.64,133.722 396,137.5C 395.978,132.182 396.145,126.849 396.5,121.5 Z"/></g>
<g><path style="opacity:1" fill="#b8b8b8" d="M 310.5,127.5 C 310.118,132.092 309.118,136.425 307.5,140.5C 307.627,135.849 308.627,131.515 310.5,127.5 Z"/></g>
<g><path style="opacity:1" fill="#8f8f8f" d="M 478.5,122.5 C 479.833,135.5 479.833,148.5 478.5,161.5C 478.666,154.492 478.5,147.492 478,140.5C 476.89,142.037 475.39,142.703 473.5,142.5C 473.5,143.5 473.5,144.5 473.5,145.5C 472.167,145.5 470.833,145.5 469.5,145.5C 469.5,146.5 469.5,147.5 469.5,148.5C 466.343,148.183 464.843,146.516 465,143.5C 469.281,139.512 473.614,135.512 478,131.5C 478.498,128.518 478.665,125.518 478.5,122.5 Z"/></g>
<g><path style="opacity:1" fill="#aaaaaa" d="M 329.5,138.5 C 329.833,138.5 330.167,138.5 330.5,138.5C 332.765,143.567 333.098,148.9 331.5,154.5C 329.833,154.5 328.167,154.5 326.5,154.5C 325.167,154.5 323.833,154.5 322.5,154.5C 321.432,153.566 320.099,153.232 318.5,153.5C 318.5,148.5 318.5,143.5 318.5,138.5C 322.167,138.5 325.833,138.5 329.5,138.5 Z"/></g>
<g><path style="opacity:1" fill="#999999" d="M 330.5,138.5 C 351.578,140.507 372.578,142.841 393.5,145.5C 393.167,150.833 392.833,156.167 392.5,161.5C 388.481,161.354 384.481,161.021 380.5,160.5C 384.354,157.728 387.688,154.395 390.5,150.5C 392.094,147.855 391.427,146.188 388.5,145.5C 382.911,149.085 377.911,153.418 373.5,158.5C 374.243,159.182 374.909,159.849 375.5,160.5C 372.545,159.841 369.545,159.508 366.5,159.5C 352.924,158.697 339.59,157.03 326.5,154.5C 328.167,154.5 329.833,154.5 331.5,154.5C 333.098,148.9 332.765,143.567 330.5,138.5 Z"/></g>
<g><path style="opacity:1" fill="#757575" d="M 322.5,132.5 C 323.5,132.5 324.5,132.5 325.5,132.5C 325.611,133.117 325.944,133.617 326.5,134C 350.848,136.317 375.181,138.817 399.5,141.5C 418.588,143.472 437.588,145.806 456.5,148.5C 462.653,149.328 468.987,149.828 475.5,150C 477.107,151.049 477.773,152.549 477.5,154.5C 472.5,154.5 467.5,154.5 462.5,154.5C 439.818,150.118 416.818,147.118 393.5,145.5C 372.578,142.841 351.578,140.507 330.5,138.5C 330.167,138.5 329.833,138.5 329.5,138.5C 323.734,137.012 317.734,136.178 311.5,136C 310.167,134.667 310.167,133.333 311.5,132C 315.221,131.322 318.888,131.489 322.5,132.5 Z"/></g>
<g><path style="opacity:0.08" fill="#bbbbbb" d="M 135.5,143.5 C 135.5,144.167 135.833,144.5 136.5,144.5C 136.5,144.833 136.5,145.167 136.5,145.5C 133.218,145.807 130.552,147.141 128.5,149.5C 129.568,146.103 131.901,144.103 135.5,143.5 Z"/></g>
<g><path style="opacity:1" fill="#8d8d8d" d="M 136.5,145.5 C 136.5,145.167 136.5,144.833 136.5,144.5C 142.202,144.921 147.869,145.588 153.5,146.5C 153.5,146.833 153.5,147.167 153.5,147.5C 147.845,146.751 142.178,146.085 136.5,145.5 Z"/></g>
<g><path style="opacity:1" fill="#a6a6a6" d="M 380.5,160.5 C 378.833,160.5 377.167,160.5 375.5,160.5C 374.909,159.849 374.243,159.182 373.5,158.5C 377.911,153.418 382.911,149.085 388.5,145.5C 391.427,146.188 392.094,147.855 390.5,150.5C 387.688,154.395 384.354,157.728 380.5,160.5 Z"/></g>
<g><path style="opacity:1" fill="#434343" d="M 136.5,145.5 C 142.178,146.085 147.845,146.751 153.5,147.5C 150.046,149.785 147.046,152.619 144.5,156C 145.219,158.648 146.886,160.148 149.5,160.5C 150.261,159.609 151.261,158.942 152.5,158.5C 194.593,163.584 236.593,169.251 278.5,175.5C 277.22,177.702 277.22,179.868 278.5,182C 273.481,182.498 268.481,182.332 263.5,181.5C 263.5,180.833 263.167,180.5 262.5,180.5C 259.763,180.599 257.096,180.265 254.5,179.5C 241.07,177.391 227.404,176.224 213.5,176C 210.942,174.62 210.942,173.12 213.5,171.5C 212.167,170.5 210.833,169.5 209.5,168.5C 205.922,171.958 201.589,173.291 196.5,172.5C 196.167,172.5 195.833,172.5 195.5,172.5C 195.389,171.883 195.056,171.383 194.5,171C 188.491,170.5 182.491,170.667 176.5,171.5C 170.493,170.832 164.493,170.165 158.5,169.5C 158.5,168.5 158.5,167.5 158.5,166.5C 152.839,166.093 147.172,165.76 141.5,165.5C 138.873,164.895 136.207,164.395 133.5,164C 132.219,162.591 131.219,161.091 130.5,159.5C 130.335,156.482 130.502,153.482 131,150.5C 132.352,148.251 134.185,146.584 136.5,145.5 Z"/></g>
<g><path style="opacity:1" fill="#8b8b8b" d="M 393.5,145.5 C 416.818,147.118 439.818,150.118 462.5,154.5C 462.663,159.547 462.329,164.547 461.5,169.5C 454.869,168.669 448.202,168.336 441.5,168.5C 420.681,166.131 399.847,163.798 379,161.5C 376.775,161.565 374.608,161.898 372.5,162.5C 370.573,161.138 368.573,160.138 366.5,159.5C 369.545,159.508 372.545,159.841 375.5,160.5C 377.167,160.5 378.833,160.5 380.5,160.5C 384.481,161.021 388.481,161.354 392.5,161.5C 392.833,156.167 393.167,150.833 393.5,145.5 Z"/></g>
<g><path style="opacity:1" fill="#b8b8b8" d="M 153.5,147.5 C 153.5,147.167 153.5,146.833 153.5,146.5C 160.853,146.021 167.853,147.021 174.5,149.5C 169.482,149.387 164.482,149.053 159.5,148.5C 157.735,147.539 155.735,147.205 153.5,147.5 Z"/></g>
<g><path style="opacity:0.757" fill="#878787" d="M 136.5,145.5 C 134.185,146.584 132.352,148.251 131,150.5C 130.502,153.482 130.335,156.482 130.5,159.5C 129.883,159.389 129.383,159.056 129,158.5C 128.503,156.19 128.337,153.857 128.5,151.5C 128.5,150.833 128.5,150.167 128.5,149.5C 130.552,147.141 133.218,145.807 136.5,145.5 Z"/></g>
<g><path style="opacity:1" fill="#5e5e5e" d="M 153.5,147.5 C 155.735,147.205 157.735,147.539 159.5,148.5C 157.5,151.5 155.5,154.5 153.5,157.5C 152.167,157.5 150.833,157.5 149.5,157.5C 149.5,158.5 149.5,159.5 149.5,160.5C 146.886,160.148 145.219,158.648 144.5,156C 147.046,152.619 150.046,149.785 153.5,147.5 Z"/></g>
<g><path style="opacity:1" fill="#a7a7a7" d="M 182.5,150.5 C 192.799,150.604 202.799,151.938 212.5,154.5C 202.281,153.792 192.281,152.459 182.5,150.5 Z"/></g>
<g><path style="opacity:1" fill="#4a4a4a" d="M 159.5,148.5 C 164.482,149.053 169.482,149.387 174.5,149.5C 177.385,149.194 180.052,149.527 182.5,150.5C 192.281,152.459 202.281,153.792 212.5,154.5C 220.002,155.707 227.669,156.707 235.5,157.5C 236.167,157.5 236.833,157.5 237.5,157.5C 240.273,158.657 243.273,159.324 246.5,159.5C 252.274,160.946 258.274,161.612 264.5,161.5C 265.167,161.5 265.833,161.5 266.5,161.5C 272.233,163.305 278.233,164.305 284.5,164.5C 285.833,164.5 287.167,164.5 288.5,164.5C 288.804,165.15 289.137,165.817 289.5,166.5C 286.237,168.259 283.403,170.592 281,173.5C 280.221,175.906 281.054,177.573 283.5,178.5C 284.386,177.675 284.719,176.675 284.5,175.5C 290.317,175.007 293.984,172.007 295.5,166.5C 304.395,166.139 313.061,166.806 321.5,168.5C 313.176,167.709 304.843,167.542 296.5,168C 302.921,168.459 309.254,169.459 315.5,171C 317.059,173.642 316.725,175.975 314.5,178C 304.857,177.507 295.19,177.007 285.5,176.5C 284.801,178.995 283.801,181.328 282.5,183.5C 290.174,183.821 297.841,184.321 305.5,185C 306.416,185.278 307.082,185.778 307.5,186.5C 306.167,186.5 304.833,186.5 303.5,186.5C 301.052,185.527 298.385,185.194 295.5,185.5C 290.463,185.587 285.463,185.254 280.5,184.5C 275.814,183.76 270.98,183.093 266,182.5C 264.274,184.098 263.441,183.765 263.5,181.5C 268.481,182.332 273.481,182.498 278.5,182C 277.22,179.868 277.22,177.702 278.5,175.5C 236.593,169.251 194.593,163.584 152.5,158.5C 151.261,158.942 150.261,159.609 149.5,160.5C 149.5,159.5 149.5,158.5 149.5,157.5C 150.833,157.5 152.167,157.5 153.5,157.5C 155.5,154.5 157.5,151.5 159.5,148.5 Z"/></g>
<g><path style="opacity:1" fill="#cdcdcd" d="M 478.5,116.5 C 479.29,117.609 479.79,118.942 480,120.5C 480.876,142.538 480.376,164.538 478.5,186.5C 482.337,186.931 486.003,187.598 489.5,188.5C 487.5,188.5 485.5,188.5 483.5,188.5C 482.5,188.5 481.5,188.5 480.5,188.5C 479.791,187.596 478.791,187.263 477.5,187.5C 477.5,185.833 477.5,184.167 477.5,182.5C 478.232,175.524 478.565,168.524 478.5,161.5C 479.833,148.5 479.833,135.5 478.5,122.5C 478.5,120.833 478.5,119.167 478.5,117.5C 478.5,117.167 478.5,116.833 478.5,116.5 Z"/></g>
<g><path style="opacity:1" fill="#a3a3a3" d="M 212.5,154.5 C 219.533,154.503 226.533,155.003 233.5,156C 234.416,156.278 235.082,156.778 235.5,157.5C 227.669,156.707 220.002,155.707 212.5,154.5 Z"/></g>
<g><path style="opacity:1" fill="#999999" d="M 237.5,157.5 C 241.881,157.372 246.215,157.705 250.5,158.5C 250.5,158.833 250.5,159.167 250.5,159.5C 249.167,159.5 247.833,159.5 246.5,159.5C 243.273,159.324 240.273,158.657 237.5,157.5 Z"/></g>
<g><path style="opacity:1" fill="#6d6d6d" d="M 246.5,159.5 C 247.833,159.5 249.167,159.5 250.5,159.5C 255.353,159.813 260.02,160.479 264.5,161.5C 258.274,161.612 252.274,160.946 246.5,159.5 Z"/></g>
<g><path style="opacity:1" fill="#b9b9b9" d="M 250.5,159.5 C 250.5,159.167 250.5,158.833 250.5,158.5C 258.504,159.223 266.504,160.056 274.5,161C 275.416,161.278 276.082,161.778 276.5,162.5C 273.193,161.949 269.86,161.616 266.5,161.5C 265.833,161.5 265.167,161.5 264.5,161.5C 260.02,160.479 255.353,159.813 250.5,159.5 Z"/></g>
<g><path style="opacity:1" fill="#626262" d="M 266.5,161.5 C 269.86,161.616 273.193,161.949 276.5,162.5C 277.5,162.5 278.5,162.5 279.5,162.5C 281.167,163.167 282.833,163.833 284.5,164.5C 278.233,164.305 272.233,163.305 266.5,161.5 Z"/></g>
<g><path style="opacity:1" fill="#757575" d="M 322.5,154.5 C 323.833,154.5 325.167,154.5 326.5,154.5C 339.59,157.03 352.924,158.697 366.5,159.5C 368.573,160.138 370.573,161.138 372.5,162.5C 374.608,161.898 376.775,161.565 379,161.5C 399.847,163.798 420.681,166.131 441.5,168.5C 452.607,170.377 463.94,171.377 475.5,171.5C 476.154,175.211 474.654,177.211 471,177.5C 457.868,175.463 444.701,173.796 431.5,172.5C 418.186,171.251 404.853,170.251 391.5,169.5C 391.389,168.883 391.056,168.383 390.5,168C 362.355,165.137 334.355,161.97 306.5,158.5C 306.5,156.833 306.5,155.167 306.5,153.5C 311.862,153.472 317.195,153.806 322.5,154.5 Z"/></g>
<g><path style="opacity:1" fill="#afafaf" d="M 279.5,162.5 C 284.414,162.362 289.081,163.028 293.5,164.5C 291.833,164.5 290.167,164.5 288.5,164.5C 287.167,164.5 285.833,164.5 284.5,164.5C 282.833,163.833 281.167,163.167 279.5,162.5 Z"/></g>
<g><path style="opacity:1" fill="#9a9a9a" d="M 130.5,159.5 C 131.219,161.091 132.219,162.591 133.5,164C 136.207,164.395 138.873,164.895 141.5,165.5C 146.29,166.725 151.29,167.392 156.5,167.5C 151.517,174.741 146.017,181.741 140,188.5C 139.51,189.793 139.343,191.127 139.5,192.5C 135.174,182.049 132.174,171.049 130.5,159.5 Z"/></g>
<g><path style="opacity:1" fill="#424242" d="M 321.5,168.5 C 325.943,169.801 330.609,170.468 335.5,170.5C 340.527,170.503 345.527,170.836 350.5,171.5C 350.918,172.222 351.584,172.722 352.5,173C 358.135,173.904 363.802,174.404 369.5,174.5C 372.287,175.477 375.287,175.81 378.5,175.5C 381.544,177.011 384.878,177.678 388.5,177.5C 388.449,183.737 387.783,189.904 386.5,196C 386.833,196.5 387.167,197 387.5,197.5C 395.071,199.819 402.738,200.152 410.5,198.5C 410.5,198.833 410.5,199.167 410.5,199.5C 408.076,199.192 405.743,199.526 403.5,200.5C 407.216,205.967 411.382,210.967 416,215.5C 419.709,211.959 423.209,208.292 426.5,204.5C 427.338,204.158 427.672,203.492 427.5,202.5C 439.282,204.641 450.949,205.975 462.5,206.5C 461.022,206.238 459.689,206.571 458.5,207.5C 460.523,210.889 462.523,214.222 464.5,217.5C 464.66,219.199 464.494,220.866 464,222.5C 462.167,223.667 460.667,225.167 459.5,227C 458.207,227.49 456.873,227.657 455.5,227.5C 451.753,220.344 447.253,213.677 442,207.5C 438.25,210.744 435.083,214.411 432.5,218.5C 427.528,223.807 422.528,229.14 417.5,234.5C 415.396,234.799 413.396,234.466 411.5,233.5C 403.49,222.138 395.49,210.804 387.5,199.5C 385.91,197.766 383.91,196.6 381.5,196C 377.118,195.708 372.785,195.208 368.5,194.5C 359.778,192.704 350.945,191.038 342,189.5C 338.015,190.072 334.182,190.739 330.5,191.5C 325.938,190.372 321.272,189.705 316.5,189.5C 316.5,188.5 316.5,187.5 316.5,186.5C 315.167,186.5 313.833,186.5 312.5,186.5C 310.833,186.5 309.167,186.5 307.5,186.5C 307.082,185.778 306.416,185.278 305.5,185C 297.841,184.321 290.174,183.821 282.5,183.5C 283.801,181.328 284.801,178.995 285.5,176.5C 295.19,177.007 304.857,177.507 314.5,178C 316.725,175.975 317.059,173.642 315.5,171C 309.254,169.459 302.921,168.459 296.5,168C 304.843,167.542 313.176,167.709 321.5,168.5 Z"/></g>
<g><path style="opacity:1" fill="#676767" d="M 321.5,168.5 C 326.453,168.123 331.119,168.789 335.5,170.5C 330.609,170.468 325.943,169.801 321.5,168.5 Z"/></g>
<g><path style="opacity:1" fill="#5f5f5f" d="M 288.5,164.5 C 290.167,164.5 291.833,164.5 293.5,164.5C 293.833,164.5 294.167,164.5 294.5,164.5C 294.833,165.167 295.167,165.833 295.5,166.5C 293.984,172.007 290.317,175.007 284.5,175.5C 284.719,176.675 284.386,177.675 283.5,178.5C 281.054,177.573 280.221,175.906 281,173.5C 283.403,170.592 286.237,168.259 289.5,166.5C 289.137,165.817 288.804,165.15 288.5,164.5 Z"/></g>
<g><path style="opacity:1" fill="#626262" d="M 350.5,171.5 C 357.027,172.103 363.361,173.103 369.5,174.5C 363.802,174.404 358.135,173.904 352.5,173C 351.584,172.722 350.918,172.222 350.5,171.5 Z"/></g>
<g><path style="opacity:1" fill="#575757" d="M 141.5,165.5 C 147.172,165.76 152.839,166.093 158.5,166.5C 158.5,167.5 158.5,168.5 158.5,169.5C 164.493,170.165 170.493,170.832 176.5,171.5C 182.491,170.667 188.491,170.5 194.5,171C 195.056,171.383 195.389,171.883 195.5,172.5C 191.534,171.838 187.534,171.505 183.5,171.5C 185.117,176.607 187.617,181.274 191,185.5C 191.49,186.793 191.657,188.127 191.5,189.5C 192.552,189.649 193.552,189.483 194.5,189C 199.782,184.226 204.449,179.06 208.5,173.5C 204.298,173.817 200.298,173.483 196.5,172.5C 201.589,173.291 205.922,171.958 209.5,168.5C 210.833,169.5 212.167,170.5 213.5,171.5C 210.942,173.12 210.942,174.62 213.5,176C 227.404,176.224 241.07,177.391 254.5,179.5C 249.449,178.904 244.449,178.904 239.5,179.5C 243.244,183.976 246.244,188.976 248.5,194.5C 253.612,190.055 258.279,185.388 262.5,180.5C 263.167,180.5 263.5,180.833 263.5,181.5C 263.441,183.765 264.274,184.098 266,182.5C 270.98,183.093 275.814,183.76 280.5,184.5C 278.068,185.75 275.734,187.25 273.5,189C 266.136,196.698 258.47,204.031 250.5,211C 246.719,212.098 243.553,211.265 241,208.5C 236.184,198.198 230.351,188.532 223.5,179.5C 213.938,188.808 204.271,197.975 194.5,207C 192.101,207.711 189.768,207.544 187.5,206.5C 184.833,201.524 181.833,196.857 178.5,192.5C 176.365,186.226 173.198,180.56 169,175.5C 161.823,183.012 154.989,190.845 148.5,199C 146.866,199.494 145.199,199.66 143.5,199.5C 142.404,196.968 141.071,194.635 139.5,192.5C 139.343,191.127 139.51,189.793 140,188.5C 146.017,181.741 151.517,174.741 156.5,167.5C 151.29,167.392 146.29,166.725 141.5,165.5 Z"/></g>
<g><path style="opacity:1" fill="#979797" d="M 195.5,172.5 C 195.833,172.5 196.167,172.5 196.5,172.5C 200.298,173.483 204.298,173.817 208.5,173.5C 204.449,179.06 199.782,184.226 194.5,189C 193.552,189.483 192.552,189.649 191.5,189.5C 191.657,188.127 191.49,186.793 191,185.5C 187.617,181.274 185.117,176.607 183.5,171.5C 187.534,171.505 191.534,171.838 195.5,172.5 Z"/></g>
<g><path style="opacity:1" fill="#8c8c8c" d="M 391.5,169.5 C 404.853,170.251 418.186,171.251 431.5,172.5C 440.268,174.56 449.268,176.06 458.5,177C 459.423,179.041 459.756,181.208 459.5,183.5C 453.833,183.5 448.167,183.5 442.5,183.5C 441.5,183.5 440.5,183.5 439.5,183.5C 432.989,182.306 426.322,181.306 419.5,180.5C 416.14,180.384 412.807,180.051 409.5,179.5C 400.89,177.838 392.223,176.504 383.5,175.5C 388.794,176.862 391.46,174.862 391.5,169.5 Z"/></g>
<g><path style="opacity:1" fill="#5b5b5b" d="M 378.5,175.5 C 380.167,175.5 381.833,175.5 383.5,175.5C 392.223,176.504 400.89,177.838 409.5,179.5C 402.456,179.244 395.456,178.578 388.5,177.5C 384.878,177.678 381.544,177.011 378.5,175.5 Z"/></g>
<g><path style="opacity:1" fill="#808080" d="M 435.5,104.5 C 449.223,105.461 462.89,106.795 476.5,108.5C 476.42,111.781 477.087,114.781 478.5,117.5C 478.5,119.167 478.5,120.833 478.5,122.5C 478.665,125.518 478.498,128.518 478,131.5C 473.614,135.512 469.281,139.512 465,143.5C 464.843,146.516 466.343,148.183 469.5,148.5C 469.5,147.5 469.5,146.5 469.5,145.5C 470.833,145.5 472.167,145.5 473.5,145.5C 473.5,144.5 473.5,143.5 473.5,142.5C 475.39,142.703 476.89,142.037 478,140.5C 478.5,147.492 478.666,154.492 478.5,161.5C 478.565,168.524 478.232,175.524 477.5,182.5C 476.549,183.919 476.216,185.585 476.5,187.5C 464.99,186.477 453.656,185.144 442.5,183.5C 448.167,183.5 453.833,183.5 459.5,183.5C 459.756,181.208 459.423,179.041 458.5,177C 449.268,176.06 440.268,174.56 431.5,172.5C 444.701,173.796 457.868,175.463 471,177.5C 474.654,177.211 476.154,175.211 475.5,171.5C 463.94,171.377 452.607,170.377 441.5,168.5C 448.202,168.336 454.869,168.669 461.5,169.5C 462.329,164.547 462.663,159.547 462.5,154.5C 467.5,154.5 472.5,154.5 477.5,154.5C 477.773,152.549 477.107,151.049 475.5,150C 468.987,149.828 462.653,149.328 456.5,148.5C 458.5,148.5 460.5,148.5 462.5,148.5C 462.5,142.167 462.5,135.833 462.5,129.5C 467.473,130.164 472.473,130.497 477.5,130.5C 477.5,128.833 477.5,127.167 477.5,125.5C 456.94,124.179 436.607,121.846 416.5,118.5C 431.913,119.508 447.246,121.175 462.5,123.5C 462.57,118.392 461.903,113.392 460.5,108.5C 452.527,107.438 444.527,106.605 436.5,106C 435.944,105.617 435.611,105.117 435.5,104.5 Z"/></g>
<g><path style="opacity:1" fill="#9a9a9a" d="M 280.5,184.5 C 285.797,194.67 290.964,205.003 296,215.5C 298.497,217.478 301.331,217.978 304.5,217C 313.435,208.714 322.102,200.214 330.5,191.5C 331.496,191.414 332.329,191.748 333,192.5C 333.847,194.854 334.68,197.188 335.5,199.5C 334.85,199.196 334.183,198.863 333.5,198.5C 329.414,203.757 324.581,208.091 319,211.5C 318.654,213.848 317.487,215.681 315.5,217C 316.5,218 317.5,219 318.5,220C 320.513,220.309 320.846,219.642 319.5,218C 320.325,216.312 321.325,216.145 322.5,217.5C 323.386,216.675 323.719,215.675 323.5,214.5C 325.308,214.509 326.975,214.009 328.5,213C 330.43,209.947 332.93,207.447 336,205.5C 336.494,203.866 336.66,202.199 336.5,200.5C 339.924,205.687 342.591,211.354 344.5,217.5C 346.38,220.091 348.38,222.591 350.5,225C 352.167,225.667 353.833,225.667 355.5,225C 362.765,217.891 370.432,211.391 378.5,205.5C 381.075,204.272 383.408,202.605 385.5,200.5C 385.833,201.833 386.167,203.167 386.5,204.5C 384.522,213.632 384.189,222.798 385.5,232C 385.164,233.03 384.497,233.53 383.5,233.5C 380.685,248.686 378.685,264.019 377.5,279.5C 343.234,276.077 309.234,271.743 275.5,266.5C 277.82,262.992 279.987,259.326 282,255.5C 285.154,254.334 288.321,252.668 291.5,250.5C 291.5,249.5 291.5,248.5 291.5,247.5C 289.61,247.703 288.11,247.037 287,245.5C 280.831,251.169 274.998,257.169 269.5,263.5C 264.208,264.495 258.875,264.828 253.5,264.5C 249.382,263.291 245.049,262.624 240.5,262.5C 240.167,262.5 239.833,262.5 239.5,262.5C 233.75,260.85 227.75,260.184 221.5,260.5C 221.167,260.5 220.833,260.5 220.5,260.5C 214.703,258.462 208.703,256.795 202.5,255.5C 175.794,244.466 156.127,225.799 143.5,199.5C 145.199,199.66 146.866,199.494 148.5,199C 154.989,190.845 161.823,183.012 169,175.5C 173.198,180.56 176.365,186.226 178.5,192.5C 181.833,196.857 184.833,201.524 187.5,206.5C 189.768,207.544 192.101,207.711 194.5,207C 204.271,197.975 213.938,188.808 223.5,179.5C 230.351,188.532 236.184,198.198 241,208.5C 243.553,211.265 246.719,212.098 250.5,211C 258.47,204.031 266.136,196.698 273.5,189C 275.734,187.25 278.068,185.75 280.5,184.5 Z"/></g>
<g><path style="opacity:1" fill="#323232" d="M 388.5,177.5 C 395.456,178.578 402.456,179.244 409.5,179.5C 412.807,180.051 416.14,180.384 419.5,180.5C 421.026,182.13 423.026,182.963 425.5,183C 420.633,188.366 415.633,193.533 410.5,198.5C 402.738,200.152 395.071,199.819 387.5,197.5C 387.167,197 386.833,196.5 386.5,196C 387.783,189.904 388.449,183.737 388.5,177.5 Z"/></g>
<g><path style="opacity:1" fill="#939393" d="M 254.5,179.5 C 257.096,180.265 259.763,180.599 262.5,180.5C 258.279,185.388 253.612,190.055 248.5,194.5C 246.244,188.976 243.244,183.976 239.5,179.5C 244.449,178.904 249.449,178.904 254.5,179.5 Z"/></g>
<g><path style="opacity:1" fill="#333333" d="M 439.5,183.5 C 440.5,183.5 441.5,183.5 442.5,183.5C 453.656,185.144 464.99,186.477 476.5,187.5C 476.5,187.833 476.5,188.167 476.5,188.5C 481.25,190.031 486.25,190.698 491.5,190.5C 505.524,191.963 519.524,193.63 533.5,195.5C 537.657,196.449 541.99,197.116 546.5,197.5C 551.697,198.491 557.03,199.491 562.5,200.5C 557.119,206.548 551.452,212.215 545.5,217.5C 542.162,217.935 539.162,217.268 536.5,215.5C 529.19,214.681 521.856,214.014 514.5,213.5C 502.921,212.591 491.254,210.924 479.5,208.5C 473.69,208.686 468.023,208.02 462.5,206.5C 450.949,205.975 439.282,204.641 427.5,202.5C 424.493,200.825 421.16,200.159 417.5,200.5C 417.5,199.5 417.5,198.5 417.5,197.5C 418.873,197.657 420.207,197.49 421.5,197C 426.049,193.47 429.382,189.136 431.5,184C 434.146,183.503 436.813,183.336 439.5,183.5 Z"/></g>
<g><path style="opacity:1" fill="#565656" d="M 280.5,184.5 C 285.463,185.254 290.463,185.587 295.5,185.5C 295.755,187.967 296.755,189.967 298.5,191.5C 300.306,193.089 301.639,195.089 302.5,197.5C 303.365,198.583 304.365,198.749 305.5,198C 308.306,195.194 311.14,192.36 314,189.5C 314.239,188.212 313.739,187.212 312.5,186.5C 313.833,186.5 315.167,186.5 316.5,186.5C 316.5,187.5 316.5,188.5 316.5,189.5C 321.272,189.705 325.938,190.372 330.5,191.5C 322.102,200.214 313.435,208.714 304.5,217C 301.331,217.978 298.497,217.478 296,215.5C 290.964,205.003 285.797,194.67 280.5,184.5 Z"/></g>
<g><path style="opacity:1" fill="#777777" d="M 295.5,185.5 C 298.385,185.194 301.052,185.527 303.5,186.5C 301.5,186.5 299.5,186.5 297.5,186.5C 297.629,188.216 297.962,189.883 298.5,191.5C 296.755,189.967 295.755,187.967 295.5,185.5 Z"/></g>
<g><path style="opacity:1" fill="#949494" d="M 303.5,186.5 C 304.833,186.5 306.167,186.5 307.5,186.5C 309.167,186.5 310.833,186.5 312.5,186.5C 313.739,187.212 314.239,188.212 314,189.5C 311.14,192.36 308.306,195.194 305.5,198C 304.365,198.749 303.365,198.583 302.5,197.5C 301.639,195.089 300.306,193.089 298.5,191.5C 297.962,189.883 297.629,188.216 297.5,186.5C 299.5,186.5 301.5,186.5 303.5,186.5 Z"/></g>
<g><path style="opacity:1" fill="#adadad" d="M 477.5,182.5 C 477.5,184.167 477.5,185.833 477.5,187.5C 478.791,187.263 479.791,187.596 480.5,188.5C 479.167,188.5 477.833,188.5 476.5,188.5C 476.5,188.167 476.5,187.833 476.5,187.5C 476.216,185.585 476.549,183.919 477.5,182.5 Z"/></g>
<g><path style="opacity:1" fill="#4e4e4e" d="M 476.5,188.5 C 477.833,188.5 479.167,188.5 480.5,188.5C 481.5,188.5 482.5,188.5 483.5,188.5C 486.167,189.167 488.833,189.833 491.5,190.5C 486.25,190.698 481.25,190.031 476.5,188.5 Z"/></g>
<g><path style="opacity:1" fill="#a5a5a5" d="M 483.5,188.5 C 485.5,188.5 487.5,188.5 489.5,188.5C 504.238,190.034 518.905,192.034 533.5,194.5C 533.5,194.833 533.5,195.167 533.5,195.5C 519.524,193.63 505.524,191.963 491.5,190.5C 488.833,189.833 486.167,189.167 483.5,188.5 Z"/></g>
<g><path style="opacity:1" fill="#4b4b4b" d="M 419.5,180.5 C 426.322,181.306 432.989,182.306 439.5,183.5C 436.813,183.336 434.146,183.503 431.5,184C 429.382,189.136 426.049,193.47 421.5,197C 420.207,197.49 418.873,197.657 417.5,197.5C 417.5,198.5 417.5,199.5 417.5,200.5C 415.097,200.552 412.764,200.219 410.5,199.5C 410.5,199.167 410.5,198.833 410.5,198.5C 415.633,193.533 420.633,188.366 425.5,183C 423.026,182.963 421.026,182.13 419.5,180.5 Z"/></g>
<g><path style="opacity:1" fill="#575757" d="M 368.5,194.5 C 372.785,195.208 377.118,195.708 381.5,196C 383.91,196.6 385.91,197.766 387.5,199.5C 383.47,199.849 380.47,201.849 378.5,205.5C 370.432,211.391 362.765,217.891 355.5,225C 353.833,225.667 352.167,225.667 350.5,225C 348.38,222.591 346.38,220.091 344.5,217.5C 342.591,211.354 339.924,205.687 336.5,200.5C 336.5,199.833 336.167,199.5 335.5,199.5C 334.68,197.188 333.847,194.854 333,192.5C 332.329,191.748 331.496,191.414 330.5,191.5C 334.182,190.739 338.015,190.072 342,189.5C 350.945,191.038 359.778,192.704 368.5,194.5 Z"/></g>
<g><path style="opacity:1" fill="#969696" d="M 368.5,194.5 C 364.665,200.007 359.665,204.007 353.5,206.5C 352.381,201.604 350.715,196.937 348.5,192.5C 355.109,193.659 361.776,194.326 368.5,194.5 Z"/></g>
<g><path style="opacity:1" fill="#b3b3b3" d="M 533.5,194.5 C 539.861,194.603 546.194,195.103 552.5,196C 553.416,196.278 554.082,196.778 554.5,197.5C 551.833,197.5 549.167,197.5 546.5,197.5C 541.99,197.116 537.657,196.449 533.5,195.5C 533.5,195.167 533.5,194.833 533.5,194.5 Z"/></g>
<g><path style="opacity:1" fill="#bfbfbf" d="M 555.5,197.5 C 561.176,197.334 566.843,197.501 572.5,198C 577.42,199.24 582.42,200.074 587.5,200.5C 589.333,200.585 590.666,201.252 591.5,202.5C 585.839,202.093 580.172,201.76 574.5,201.5C 568.387,199.448 562.054,198.115 555.5,197.5 Z"/></g>
<g><path style="opacity:1" fill="#878787" d="M 410.5,199.5 C 412.764,200.219 415.097,200.552 417.5,200.5C 420.744,201.517 423.744,202.85 426.5,204.5C 423.209,208.292 419.709,211.959 416,215.5C 411.382,210.967 407.216,205.967 403.5,200.5C 405.743,199.526 408.076,199.192 410.5,199.5 Z"/></g>
<g><path style="opacity:1" fill="#5c5c5c" d="M 417.5,200.5 C 421.16,200.159 424.493,200.825 427.5,202.5C 427.672,203.492 427.338,204.158 426.5,204.5C 423.744,202.85 420.744,201.517 417.5,200.5 Z"/></g>
<g><path style="opacity:1" fill="#333333" d="M 574.5,201.5 C 580.172,201.76 585.839,202.093 591.5,202.5C 596.353,202.813 601.02,203.479 605.5,204.5C 612.953,206.115 620.619,207.115 628.5,207.5C 629.167,207.5 629.833,207.5 630.5,207.5C 632.279,209.344 634.612,210.01 637.5,209.5C 643.182,216.1 642.515,222.1 635.5,227.5C 630.807,227.46 626.141,227.127 621.5,226.5C 614.68,226.618 607.68,226.118 600.5,225C 597.301,224.599 594.301,223.766 591.5,222.5C 587.785,222.577 584.119,222.244 580.5,221.5C 579.391,220.71 578.058,220.21 576.5,220C 570.275,219.872 564.108,219.706 558,219.5C 554.267,219.387 553.767,218.387 556.5,216.5C 559.859,213.649 562.192,210.149 563.5,206C 564.76,204.887 565.927,204.72 567,205.5C 568.715,202.603 571.215,201.269 574.5,201.5 Z"/></g>
<g><path style="opacity:1" fill="#8b8b8b" d="M 387.5,199.5 C 395.49,210.804 403.49,222.138 411.5,233.5C 413.396,234.466 415.396,234.799 417.5,234.5C 423.882,230.452 428.882,225.118 432.5,218.5C 435.083,214.411 438.25,210.744 442,207.5C 447.253,213.677 451.753,220.344 455.5,227.5C 456.529,229.517 457.529,231.517 458.5,233.5C 459.143,235.076 460.143,236.41 461.5,237.5C 463.836,239.391 466.502,239.891 469.5,239C 472.738,235.986 476.071,233.152 479.5,230.5C 485.194,225.473 490.527,220.14 495.5,214.5C 503.514,225.34 511.181,236.507 518.5,248C 520.5,248.667 522.5,248.667 524.5,248C 531.703,240.965 538.703,233.798 545.5,226.5C 546.857,225.315 548.357,224.315 550,223.5C 550.902,223.743 551.735,224.077 552.5,224.5C 559.222,235.074 565.889,245.907 572.5,257C 574.833,257.667 577.167,257.667 579.5,257C 581.996,255.334 584.329,253.5 586.5,251.5C 584.552,254.464 582.552,257.464 580.5,260.5C 581.012,263.351 582.679,264.684 585.5,264.5C 585.5,263.5 585.5,262.5 585.5,261.5C 586.5,261.5 587.5,261.5 588.5,261.5C 588.5,260.5 588.5,259.5 588.5,258.5C 589.873,258.657 591.207,258.49 592.5,258C 594.307,254.359 596.974,251.526 600.5,249.5C 600.67,245.167 602.836,242.501 607,241.5C 607.49,240.207 607.657,238.873 607.5,237.5C 608.401,238.29 609.068,239.29 609.5,240.5C 609.59,242.696 609.923,244.863 610.5,247C 609.346,249.786 608.179,252.619 607,255.5C 582.625,281.799 552.458,292.299 516.5,287C 482.525,283.502 448.525,280.336 414.5,277.5C 419.327,277.012 422.327,274.345 423.5,269.5C 421.876,269.64 420.71,268.973 420,267.5C 415.736,270.207 412.236,273.54 409.5,277.5C 408.848,276.275 407.681,275.608 406,275.5C 397.993,274.87 389.993,274.203 382,273.5C 378.472,274.236 377.638,276.236 379.5,279.5C 378.833,279.5 378.167,279.5 377.5,279.5C 378.685,264.019 380.685,248.686 383.5,233.5C 384.497,233.53 385.164,233.03 385.5,232C 384.189,222.798 384.522,213.632 386.5,204.5C 386.167,203.167 385.833,201.833 385.5,200.5C 383.408,202.605 381.075,204.272 378.5,205.5C 380.47,201.849 383.47,199.849 387.5,199.5 Z"/></g>
<g><path style="opacity:1" fill="#a6a6a6" d="M 335.5,199.5 C 336.167,199.5 336.5,199.833 336.5,200.5C 336.66,202.199 336.494,203.866 336,205.5C 332.93,207.447 330.43,209.947 328.5,213C 326.975,214.009 325.308,214.509 323.5,214.5C 323.719,215.675 323.386,216.675 322.5,217.5C 321.325,216.145 320.325,216.312 319.5,218C 320.846,219.642 320.513,220.309 318.5,220C 317.5,219 316.5,218 315.5,217C 317.487,215.681 318.654,213.848 319,211.5C 324.581,208.091 329.414,203.757 333.5,198.5C 334.183,198.863 334.85,199.196 335.5,199.5 Z"/></g>
<g><path style="opacity:1" fill="#909090" d="M 605.5,204.5 C 613.432,204.492 621.098,205.492 628.5,207.5C 620.619,207.115 612.953,206.115 605.5,204.5 Z"/></g>
<g><path style="opacity:1" fill="#888888" d="M 462.5,206.5 C 468.023,208.02 473.69,208.686 479.5,208.5C 479.737,209.791 479.404,210.791 478.5,211.5C 475.367,214.469 472.367,217.635 469.5,221C 468.365,221.749 467.365,221.583 466.5,220.5C 466.058,219.261 465.391,218.261 464.5,217.5C 462.523,214.222 460.523,210.889 458.5,207.5C 459.689,206.571 461.022,206.238 462.5,206.5 Z"/></g>
<g><path style="opacity:1" fill="#575757" d="M 630.5,207.5 C 632.903,207.448 635.236,207.781 637.5,208.5C 637.5,208.833 637.5,209.167 637.5,209.5C 634.612,210.01 632.279,209.344 630.5,207.5 Z"/></g>
<g><path style="opacity:1" fill="#a6a6a6" d="M 230.5,227.5 C 229.508,227.672 228.842,227.338 228.5,226.5C 229.778,225.251 230.778,223.751 231.5,222C 232.5,221.667 233.5,221.333 234.5,221C 236.833,218 239.5,215.333 242.5,213C 244.845,212.83 247.179,213.163 249.5,214C 244.585,214.747 241.918,217.581 241.5,222.5C 239.269,224.11 237.269,225.943 235.5,228C 233.893,227.981 232.226,227.815 230.5,227.5 Z"/></g>
<g><path style="opacity:1" fill="#414141" d="M 479.5,208.5 C 491.254,210.924 502.921,212.591 514.5,213.5C 513.325,213.281 512.325,213.614 511.5,214.5C 511.624,215.107 511.957,215.44 512.5,215.5C 515.077,219.613 517.911,223.613 521,227.5C 521.483,228.448 521.649,229.448 521.5,230.5C 522.552,230.649 523.552,230.483 524.5,230C 527.697,225.638 531.363,221.805 535.5,218.5C 536.404,217.791 536.737,216.791 536.5,215.5C 539.162,217.268 542.162,217.935 545.5,217.5C 545.5,218.5 545.5,219.5 545.5,220.5C 544.5,220.5 543.5,220.5 542.5,220.5C 542.615,222.947 543.615,224.947 545.5,226.5C 538.703,233.798 531.703,240.965 524.5,248C 522.5,248.667 520.5,248.667 518.5,248C 511.181,236.507 503.514,225.34 495.5,214.5C 495.103,213.475 494.437,213.308 493.5,214C 488.6,219.392 483.933,224.892 479.5,230.5C 476.071,233.152 472.738,235.986 469.5,239C 466.502,239.891 463.836,239.391 461.5,237.5C 461.461,236.417 461.127,235.417 460.5,234.5C 464.643,231.856 467.476,228.189 469,223.5C 470.883,220.976 473.383,219.642 476.5,219.5C 478.436,216.996 479.103,214.33 478.5,211.5C 479.404,210.791 479.737,209.791 479.5,208.5 Z"/></g>
<g><path style="opacity:1" fill="#696969" d="M 514.5,213.5 C 521.856,214.014 529.19,214.681 536.5,215.5C 536.737,216.791 536.404,217.791 535.5,218.5C 534.486,217.235 532.986,216.569 531,216.5C 525.988,215.927 520.988,215.26 516,214.5C 514.615,214.514 513.449,214.848 512.5,215.5C 511.957,215.44 511.624,215.107 511.5,214.5C 512.325,213.614 513.325,213.281 514.5,213.5 Z"/></g>
<g><path style="opacity:1" fill="#888888" d="M 512.5,215.5 C 513.449,214.848 514.615,214.514 516,214.5C 520.988,215.26 525.988,215.927 531,216.5C 532.986,216.569 534.486,217.235 535.5,218.5C 531.363,221.805 527.697,225.638 524.5,230C 523.552,230.483 522.552,230.649 521.5,230.5C 521.649,229.448 521.483,228.448 521,227.5C 517.911,223.613 515.077,219.613 512.5,215.5 Z"/></g>
<g><path style="opacity:1" fill="#a3a3a3" d="M 637.5,209.5 C 637.5,209.167 637.5,208.833 637.5,208.5C 639.371,208.859 640.871,209.859 642,211.5C 642.667,215.5 642.667,219.5 642,223.5C 639.557,225.754 637.39,228.087 635.5,230.5C 635.5,229.833 635.5,229.167 635.5,228.5C 635.5,228.167 635.5,227.833 635.5,227.5C 642.515,222.1 643.182,216.1 637.5,209.5 Z"/></g>
<g><path style="opacity:1" fill="#4e4e4e" d="M 546.5,197.5 C 549.167,197.5 551.833,197.5 554.5,197.5C 554.833,197.5 555.167,197.5 555.5,197.5C 562.054,198.115 568.387,199.448 574.5,201.5C 571.215,201.269 568.715,202.603 567,205.5C 565.927,204.72 564.76,204.887 563.5,206C 562.192,210.149 559.859,213.649 556.5,216.5C 555.178,216.67 554.011,216.337 553,215.5C 552.508,216.549 552.674,217.549 553.5,218.5C 552.5,219.167 551.5,219.833 550.5,220.5C 551.63,221.622 552.297,222.956 552.5,224.5C 551.735,224.077 550.902,223.743 550,223.5C 548.357,224.315 546.857,225.315 545.5,226.5C 543.615,224.947 542.615,222.947 542.5,220.5C 543.5,220.5 544.5,220.5 545.5,220.5C 545.5,219.5 545.5,218.5 545.5,217.5C 551.452,212.215 557.119,206.548 562.5,200.5C 557.03,199.491 551.697,198.491 546.5,197.5 Z"/></g>
<g><path style="opacity:1" fill="#767676" d="M 495.5,214.5 C 490.527,220.14 485.194,225.473 479.5,230.5C 483.933,224.892 488.6,219.392 493.5,214C 494.437,213.308 495.103,213.475 495.5,214.5 Z"/></g>
<g><path style="opacity:1" fill="#414141" d="M 556.5,216.5 C 553.767,218.387 554.267,219.387 558,219.5C 564.108,219.706 570.275,219.872 576.5,220C 578.058,220.21 579.391,220.71 580.5,221.5C 575.771,220.984 571.104,220.984 566.5,221.5C 570.095,227.699 573.928,233.699 578,239.5C 583.315,235.185 588.315,230.518 593,225.5C 593.239,224.212 592.739,223.212 591.5,222.5C 594.301,223.766 597.301,224.599 600.5,225C 607.68,226.118 614.68,226.618 621.5,226.5C 620.5,226.5 619.5,226.5 618.5,226.5C 618.054,229.01 618.72,231.01 620.5,232.5C 624.824,238.781 627.158,245.781 627.5,253.5C 627.167,254.167 626.833,254.833 626.5,255.5C 625.094,255.973 624.427,256.973 624.5,258.5C 623.833,259.167 623.167,259.833 622.5,260.5C 620.097,260.607 618.264,259.607 617,257.5C 615.151,251.418 612.651,245.751 609.5,240.5C 609.068,239.29 608.401,238.29 607.5,237.5C 606.962,235.883 606.629,234.216 606.5,232.5C 605.448,232.351 604.448,232.517 603.5,233C 597.477,238.914 591.81,245.081 586.5,251.5C 584.329,253.5 581.996,255.334 579.5,257C 577.167,257.667 574.833,257.667 572.5,257C 565.889,245.907 559.222,235.074 552.5,224.5C 552.297,222.956 551.63,221.622 550.5,220.5C 551.5,219.833 552.5,219.167 553.5,218.5C 552.674,217.549 552.508,216.549 553,215.5C 554.011,216.337 555.178,216.67 556.5,216.5 Z"/></g>
<g><path style="opacity:1" fill="#868686" d="M 580.5,221.5 C 584.119,222.244 587.785,222.577 591.5,222.5C 592.739,223.212 593.239,224.212 593,225.5C 588.315,230.518 583.315,235.185 578,239.5C 573.928,233.699 570.095,227.699 566.5,221.5C 571.104,220.984 575.771,220.984 580.5,221.5 Z"/></g>
<g><path style="opacity:1" fill="#747474" d="M 215.5,225.5 C 215.611,226.117 215.944,226.617 216.5,227C 219.167,227.333 221.833,227.667 224.5,228C 225.641,228.741 225.641,229.575 224.5,230.5C 218.858,231.372 213.191,231.372 207.5,230.5C 198.153,229.903 188.819,229.07 179.5,228C 178.167,226.333 178.167,224.667 179.5,223C 191.489,223.664 203.489,224.497 215.5,225.5 Z"/></g>
<g><path style="opacity:1" fill="#525252" d="M 478.5,211.5 C 479.103,214.33 478.436,216.996 476.5,219.5C 473.383,219.642 470.883,220.976 469,223.5C 467.476,228.189 464.643,231.856 460.5,234.5C 461.127,235.417 461.461,236.417 461.5,237.5C 460.143,236.41 459.143,235.076 458.5,233.5C 457.529,231.517 456.529,229.517 455.5,227.5C 456.873,227.657 458.207,227.49 459.5,227C 460.667,225.167 462.167,223.667 464,222.5C 464.494,220.866 464.66,219.199 464.5,217.5C 465.391,218.261 466.058,219.261 466.5,220.5C 467.365,221.583 468.365,221.749 469.5,221C 472.367,217.635 475.367,214.469 478.5,211.5 Z"/></g>
<g><path style="opacity:1" fill="#858585" d="M 215.5,225.5 C 219.824,225.927 224.158,226.261 228.5,226.5C 228.842,227.338 229.508,227.672 230.5,227.5C 231.73,229.297 232.396,231.297 232.5,233.5C 223.937,233.205 215.603,232.205 207.5,230.5C 213.191,231.372 218.858,231.372 224.5,230.5C 225.641,229.575 225.641,228.741 224.5,228C 221.833,227.667 219.167,227.333 216.5,227C 215.944,226.617 215.611,226.117 215.5,225.5 Z"/></g>
<g><path style="opacity:1" fill="#5d5d5d" d="M 621.5,226.5 C 626.141,227.127 630.807,227.46 635.5,227.5C 635.5,227.833 635.5,228.167 635.5,228.5C 630.138,228.528 624.805,228.194 619.5,227.5C 619.629,229.216 619.962,230.883 620.5,232.5C 618.72,231.01 618.054,229.01 618.5,226.5C 619.5,226.5 620.5,226.5 621.5,226.5 Z"/></g>
<g><path style="opacity:1" fill="#767676" d="M 432.5,218.5 C 428.882,225.118 423.882,230.452 417.5,234.5C 422.528,229.14 427.528,223.807 432.5,218.5 Z"/></g>
<g><path style="opacity:1" fill="#808080" d="M 635.5,228.5 C 635.5,229.167 635.5,229.833 635.5,230.5C 633.465,238.243 631.131,245.909 628.5,253.5C 628.167,253.5 627.833,253.5 627.5,253.5C 627.158,245.781 624.824,238.781 620.5,232.5C 619.962,230.883 619.629,229.216 619.5,227.5C 624.805,228.194 630.138,228.528 635.5,228.5 Z"/></g>
<g><path style="opacity:1" fill="#999999" d="M 458.5,233.5 C 457.833,235.5 457.167,237.5 456.5,239.5C 455.5,239.5 454.5,239.5 453.5,239.5C 453.5,240.5 453.5,241.5 453.5,242.5C 450,242.505 448.5,240.838 449,237.5C 450.952,235.259 453.118,233.259 455.5,231.5C 456.518,232.193 457.518,232.859 458.5,233.5 Z"/></g>
<g><path style="opacity:1" fill="#a7a7a7" d="M 383.5,233.5 C 381.319,236.14 378.819,237.806 376,238.5C 373.41,245.038 368.91,249.704 362.5,252.5C 362.5,253.5 362.5,254.5 362.5,255.5C 361.167,255.5 359.833,255.5 358.5,255.5C 358.007,260.45 356.673,260.45 354.5,255.5C 363.091,246.408 371.924,237.408 381,228.5C 382.883,229.653 383.716,231.319 383.5,233.5 Z"/></g>
<g><path style="opacity:1" fill="#757575" d="M 181.5,237.5 C 204.143,240.075 226.809,242.408 249.5,244.5C 249.5,246.167 249.5,247.833 249.5,249.5C 229.129,248.057 208.795,246.224 188.5,244C 186.212,243.178 183.878,242.511 181.5,242C 180.272,240.51 180.272,239.01 181.5,237.5 Z"/></g>
<g><path style="opacity:1" fill="#999999" d="M 607.5,237.5 C 607.657,238.873 607.49,240.207 607,241.5C 602.836,242.501 600.67,245.167 600.5,249.5C 596.974,251.526 594.307,254.359 592.5,258C 591.207,258.49 589.873,258.657 588.5,258.5C 588.5,259.5 588.5,260.5 588.5,261.5C 587.5,261.5 586.5,261.5 585.5,261.5C 585.5,262.5 585.5,263.5 585.5,264.5C 582.679,264.684 581.012,263.351 580.5,260.5C 582.552,257.464 584.552,254.464 586.5,251.5C 592.271,247.609 597.605,243.109 602.5,238C 604.139,236.481 605.806,236.314 607.5,237.5 Z"/></g>
<g><path style="opacity:1" fill="#7f7f7f" d="M 607.5,237.5 C 605.806,236.314 604.139,236.481 602.5,238C 597.605,243.109 592.271,247.609 586.5,251.5C 591.81,245.081 597.477,238.914 603.5,233C 604.448,232.517 605.448,232.351 606.5,232.5C 606.629,234.216 606.962,235.883 607.5,237.5 Z"/></g>
<g><path style="opacity:1" fill="#818181" d="M 609.5,240.5 C 612.651,245.751 615.151,251.418 617,257.5C 618.264,259.607 620.097,260.607 622.5,260.5C 621.89,261.391 621.557,262.391 621.5,263.5C 618.51,266.792 615.51,270.126 612.5,273.5C 608.895,275.472 605.895,278.139 603.5,281.5C 597.276,284.98 590.943,288.313 584.5,291.5C 579.534,292.988 574.867,294.988 570.5,297.5C 569.833,297.5 569.167,297.5 568.5,297.5C 556.24,299.215 543.906,299.882 531.5,299.5C 526.75,297.969 521.75,297.302 516.5,297.5C 515.833,297.5 515.167,297.5 514.5,297.5C 507.727,295.854 500.727,294.854 493.5,294.5C 492.5,294.5 491.5,294.5 490.5,294.5C 466.197,291.169 441.864,287.836 417.5,284.5C 416.048,283.698 414.382,283.198 412.5,283C 413.244,281.185 413.911,279.352 414.5,277.5C 448.525,280.336 482.525,283.502 516.5,287C 552.458,292.299 582.625,281.799 607,255.5C 608.179,252.619 609.346,249.786 610.5,247C 609.923,244.863 609.59,242.696 609.5,240.5 Z"/></g>
<g><path style="opacity:1" fill="#a7a7a7" d="M 275.5,266.5 C 271.102,266.706 266.768,266.373 262.5,265.5C 259.287,265.81 256.287,265.477 253.5,264.5C 258.875,264.828 264.208,264.495 269.5,263.5C 274.998,257.169 280.831,251.169 287,245.5C 288.11,247.037 289.61,247.703 291.5,247.5C 291.5,248.5 291.5,249.5 291.5,250.5C 288.321,252.668 285.154,254.334 282,255.5C 279.987,259.326 277.82,262.992 275.5,266.5 Z"/></g>
<g><path style="opacity:1" fill="#999999" d="M 513.5,250.5 C 514.316,252.144 515.65,253.31 517.5,254C 516.044,255.745 514.711,257.578 513.5,259.5C 509.487,258.995 507.32,260.995 507,265.5C 503.667,268.999 500.167,272.332 496.5,275.5C 495.614,276.325 495.281,277.325 495.5,278.5C 493.315,278.888 491.482,279.888 490,281.5C 487.583,280.114 486.583,278.114 487,275.5C 494.904,269.349 501.737,262.349 507.5,254.5C 510.292,254.378 512.292,253.044 513.5,250.5 Z"/></g>
<g><path style="opacity:1" fill="#b9b9b9" d="M 202.5,255.5 C 208.703,256.795 214.703,258.462 220.5,260.5C 214.073,260.02 208.073,258.353 202.5,255.5 Z"/></g>
<g><path style="opacity:1" fill="#8a8a8a" d="M 626.5,255.5 C 626.573,257.027 625.906,258.027 624.5,258.5C 624.427,256.973 625.094,255.973 626.5,255.5 Z"/></g>
<g><path style="opacity:1" fill="#c7c7c7" d="M 627.5,253.5 C 627.833,253.5 628.167,253.5 628.5,253.5C 627.747,257.923 625.413,261.256 621.5,263.5C 621.557,262.391 621.89,261.391 622.5,260.5C 623.167,259.833 623.833,259.167 624.5,258.5C 625.906,258.027 626.573,257.027 626.5,255.5C 626.833,254.833 627.167,254.167 627.5,253.5 Z"/></g>
<g><path style="opacity:1" fill="#b7b7b7" d="M 221.5,260.5 C 227.75,260.184 233.75,260.85 239.5,262.5C 233.288,262.477 227.288,261.81 221.5,260.5 Z"/></g>
<g><path style="opacity:1" fill="#c3c3c3" d="M 240.5,262.5 C 245.049,262.624 249.382,263.291 253.5,264.5C 248.878,264.844 244.545,264.177 240.5,262.5 Z"/></g>
<g><path style="opacity:1" fill="#bdbdbd" d="M 262.5,265.5 C 266.768,266.373 271.102,266.706 275.5,266.5C 309.234,271.743 343.234,276.077 377.5,279.5C 390.763,281.478 404.096,283.145 417.5,284.5C 441.864,287.836 466.197,291.169 490.5,294.5C 486.162,294.622 485.828,294.955 489.5,295.5C 493.938,318.898 491.604,341.564 482.5,363.5C 478.907,371.235 474.74,378.568 470,385.5C 433.571,430.896 387.071,445.063 330.5,428C 329.167,427.333 328.167,426.333 327.5,425C 321.513,424.293 316.513,421.793 312.5,417.5C 309.716,416.608 307.05,415.442 304.5,414C 299.053,409.065 293.387,404.231 287.5,399.5C 286.914,399.709 286.414,400.043 286,400.5C 286,399.167 286,397.833 286,396.5C 282.345,390.85 278.012,385.85 273,381.5C 265.477,368.21 259.977,354.21 256.5,339.5C 255.678,326.851 255.345,314.185 255.5,301.5C 256.434,296.661 257.268,291.661 258,286.5C 260.083,280.757 261.916,274.924 263.5,269C 263.352,267.744 263.018,266.577 262.5,265.5 Z"/></g>
<g><path style="opacity:1" fill="#818181" d="M 409.5,277.5 C 407.282,280.844 404.115,282.177 400,281.5C 393.184,280.597 386.35,279.931 379.5,279.5C 377.638,276.236 378.472,274.236 382,273.5C 389.993,274.203 397.993,274.87 406,275.5C 407.681,275.608 408.848,276.275 409.5,277.5 Z"/></g>
<g><path style="opacity:1" fill="#949494" d="M 414.5,277.5 C 413.911,279.352 413.244,281.185 412.5,283C 414.382,283.198 416.048,283.698 417.5,284.5C 404.096,283.145 390.763,281.478 377.5,279.5C 378.167,279.5 378.833,279.5 379.5,279.5C 386.35,279.931 393.184,280.597 400,281.5C 404.115,282.177 407.282,280.844 409.5,277.5C 412.236,273.54 415.736,270.207 420,267.5C 420.71,268.973 421.876,269.64 423.5,269.5C 422.327,274.345 419.327,277.012 414.5,277.5 Z"/></g>
<g><path style="opacity:1" fill="#c8c8c8" d="M 612.5,273.5 C 612.489,275.017 611.823,276.184 610.5,277C 608.266,278.75 605.932,280.25 603.5,281.5C 605.895,278.139 608.895,275.472 612.5,273.5 Z"/></g>
<g><path style="opacity:1" fill="#b3b3b3" d="M 584.5,291.5 C 580.509,294.838 575.842,296.838 570.5,297.5C 574.867,294.988 579.534,292.988 584.5,291.5 Z"/></g>
<g><path style="opacity:1" fill="#b7b7b7" d="M 493.5,294.5 C 500.727,294.854 507.727,295.854 514.5,297.5C 507.203,297.67 500.203,296.67 493.5,294.5 Z"/></g>
<g><path style="opacity:1" fill="#b4b4b4" d="M 516.5,297.5 C 521.75,297.302 526.75,297.969 531.5,299.5C 526.234,299.811 521.234,299.145 516.5,297.5 Z"/></g>
<g><path style="opacity:1" fill="#aeaeae" d="M 568.5,297.5 C 565.512,299.14 562.179,299.974 558.5,300C 549.324,300.824 540.324,300.657 531.5,299.5C 543.906,299.882 556.24,299.215 568.5,297.5 Z"/></g>
<g><path style="opacity:1" fill="#d2d2d2" d="M 255.5,301.5 C 255.345,314.185 255.678,326.851 256.5,339.5C 254.983,332.228 254.316,324.728 254.5,317C 254.501,311.656 254.834,306.489 255.5,301.5 Z"/></g>
<g><path style="opacity:1" fill="#bdbdbd" d="M 349.5,457.5 C 384.182,456.741 418.516,459.741 452.5,466.5C 466.38,471.85 480.38,477.017 494.5,482C 499.551,486.197 505.217,489.364 511.5,491.5C 517.605,495.76 523.605,500.26 529.5,505C 533.703,509.779 538.37,514.113 543.5,518C 544.191,519.067 544.691,520.234 545,521.5C 551.401,526.585 556.401,532.919 560,540.5C 561,541.167 562,541.833 563,542.5C 567.431,553.473 572.431,564.139 578,574.5C 587.42,604.445 591.253,635.111 589.5,666.5C 588.738,667.628 588.071,668.795 587.5,670C 583.796,672.852 579.796,675.185 575.5,677C 562.253,681.167 549.087,684.667 536,687.5C 482.127,693.67 427.96,696.67 373.5,696.5C 328.106,696.461 282.773,694.795 237.5,691.5C 212.702,688.913 188.702,683.413 165.5,675C 163.766,673.266 161.766,671.932 159.5,671C 158.228,669.693 157.228,668.193 156.5,666.5C 155.262,653.166 155.262,639.833 156.5,626.5C 158.227,617.897 159.56,609.23 160.5,600.5C 168.412,564.929 185.412,534.429 211.5,509C 214.356,507.343 217.022,505.343 219.5,503C 220.793,502.51 222.127,502.343 223.5,502.5C 223.351,501.448 223.517,500.448 224,499.5C 227.197,496.962 230.364,494.462 233.5,492C 243.586,486.39 253.92,481.223 264.5,476.5C 275.887,472.824 287.22,469.157 298.5,465.5C 315.639,462.236 332.639,459.569 349.5,457.5 Z"/></g>
</svg>
