<?xml version="1.0" encoding="UTF-8"?>
<svg version="1.1" xmlns="http://www.w3.org/2000/svg" width="350" height="351">
<path d="M0 0 C2.56464688 0.00314859 5.12812243 -0.02035557 7.69262695 -0.0456543 C22.52538782 -0.1029257 37.20478767 1.47776568 51.46020508 5.75317383 C52.2064917 5.96997803 52.95277832 6.18678223 53.72167969 6.41015625 C59.26927954 8.0540464 64.62936331 9.91122715 69.89770508 12.31567383 C70.53063477 12.60345703 71.16356445 12.89124023 71.81567383 13.18774414 C80.01660569 16.93343387 88.0989972 20.77824379 95.89770508 25.31567383 C95.89770508 25.97567383 95.89770508 26.63567383 95.89770508 27.31567383 C96.47520508 27.43942383 97.05270508 27.56317383 97.64770508 27.69067383 C99.92106275 28.32216207 101.82305797 29.20425574 103.89770508 30.31567383 C103.89770508 30.97567383 103.89770508 31.63567383 103.89770508 32.31567383 C104.55770508 32.50129883 105.21770508 32.68692383 105.89770508 32.87817383 C110.23262931 34.95532502 113.36750482 38.09502472 116.89770508 41.31567383 C118.16725315 42.40051306 119.43808567 43.48385097 120.71020508 44.56567383 C132.33165317 54.82788822 143.48319395 66.53871059 150.89770508 80.31567383 C150.89770508 80.97567383 150.89770508 81.63567383 150.89770508 82.31567383 C151.55770508 82.31567383 152.21770508 82.31567383 152.89770508 82.31567383 C158.65263997 92.76407784 163.73597574 103.12944981 167.89770508 114.31567383 C168.14157959 114.93925781 168.3854541 115.5628418 168.63671875 116.20532227 C170.57567619 121.20836469 172.09455193 126.2537767 173.46020508 131.44067383 C173.77248047 132.56989258 173.77248047 132.56989258 174.09106445 133.72192383 C177.53441807 146.71815503 178.24659217 159.47995229 178.21337891 172.84521484 C178.21023003 175.48227792 178.23373248 178.11820234 178.2590332 180.75512695 C178.31497379 195.66199105 176.78968246 210.41428923 172.52270508 224.75317383 C172.20136597 225.86378174 172.20136597 225.86378174 171.87353516 226.99682617 C168.49022194 238.37852458 163.27373208 248.8079699 157.8972168 259.34887695 C156.21328735 262.66244207 154.55699035 265.98971226 152.89770508 269.31567383 C152.23770508 269.31567383 151.57770508 269.31567383 150.89770508 269.31567383 C150.68500977 270.15356445 150.47231445 270.99145508 150.25317383 271.85473633 C148.56636651 276.16168527 146.14957691 279.16468243 143.21020508 282.69067383 C142.66565674 283.35550781 142.1211084 284.0203418 141.56005859 284.70532227 C140.01554474 286.58367935 138.4590184 288.45127576 136.89770508 290.31567383 C136.2505957 291.0968457 135.60348633 291.87801758 134.93676758 292.68286133 C127.45706142 301.47607687 119.23175108 309.51383436 109.89770508 316.31567383 C109.19516602 316.87254883 108.49262695 317.42942383 107.76879883 318.00317383 C105.89770508 319.31567383 105.89770508 319.31567383 103.89770508 319.31567383 C103.89770508 319.97567383 103.89770508 320.63567383 103.89770508 321.31567383 C100.99221626 323.35736868 99.49628462 324.31567383 95.89770508 324.31567383 C95.89770508 324.97567383 95.89770508 325.63567383 95.89770508 326.31567383 C82.12406445 333.83321778 68.1970587 341.423733 52.89770508 345.31567383 C51.68598633 345.6430957 50.47426758 345.97051758 49.22583008 346.30786133 C34.68372841 350.14051456 20.79435133 351.66965732 5.79541016 351.63134766 C3.23076328 351.62819907 0.66728773 351.65170323 -1.8972168 351.67700195 C-16.72997766 351.73427336 -31.40937752 350.15358198 -45.66479492 345.87817383 C-46.41108154 345.66136963 -47.15736816 345.44456543 -47.92626953 345.22119141 C-53.47386938 343.57730126 -58.83395316 341.72012051 -64.10229492 339.31567383 C-64.73522461 339.02789062 -65.3681543 338.74010742 -66.02026367 338.44360352 C-74.22119553 334.69791378 -82.30358704 330.85310387 -90.10229492 326.31567383 C-90.10229492 325.65567383 -90.10229492 324.99567383 -90.10229492 324.31567383 C-90.67979492 324.19192383 -91.25729492 324.06817383 -91.85229492 323.94067383 C-94.12565259 323.30918559 -96.02764782 322.42709192 -98.10229492 321.31567383 C-98.10229492 320.65567383 -98.10229492 319.99567383 -98.10229492 319.31567383 C-98.76229492 319.13004883 -99.42229492 318.94442383 -100.10229492 318.75317383 C-104.43721915 316.67602264 -107.57209467 313.53632294 -111.10229492 310.31567383 C-112.37184299 309.23083459 -113.64267552 308.14749668 -114.91479492 307.06567383 C-126.53624301 296.80345943 -137.6877838 285.09263706 -145.10229492 271.31567383 C-145.10229492 270.65567383 -145.10229492 269.99567383 -145.10229492 269.31567383 C-145.76229492 269.31567383 -146.42229492 269.31567383 -147.10229492 269.31567383 C-152.85722981 258.86726981 -157.94056558 248.50189785 -162.10229492 237.31567383 C-162.34616943 236.69208984 -162.59004395 236.06850586 -162.84130859 235.42602539 C-164.78026603 230.42298297 -166.29914177 225.37757096 -167.66479492 220.19067383 C-167.97707031 219.06145508 -167.97707031 219.06145508 -168.2956543 217.90942383 C-171.73900791 204.91319263 -172.45118201 192.15139536 -172.41796875 178.78613281 C-172.41481987 176.14906974 -172.43832233 173.51314532 -172.46362305 170.8762207 C-172.51956364 155.96935661 -170.99427231 141.21705843 -166.72729492 126.87817383 C-166.40595581 125.76756592 -166.40595581 125.76756592 -166.078125 124.63452148 C-162.69481178 113.25282308 -157.47832192 102.82337775 -152.10180664 92.2824707 C-150.4178772 88.96890558 -148.76158019 85.6416354 -147.10229492 82.31567383 C-146.44229492 82.31567383 -145.78229492 82.31567383 -145.10229492 82.31567383 C-144.88959961 81.4777832 -144.6769043 80.63989258 -144.45776367 79.77661133 C-142.77095635 75.46966238 -140.35416675 72.46666523 -137.41479492 68.94067383 C-136.87024658 68.27583984 -136.32569824 67.61100586 -135.76464844 66.92602539 C-134.22013459 65.04766831 -132.66360824 63.18007189 -131.10229492 61.31567383 C-130.13163086 60.14391602 -130.13163086 60.14391602 -129.14135742 58.94848633 C-121.66165126 50.15527079 -113.43634093 42.11751329 -104.10229492 35.31567383 C-103.39975586 34.75879883 -102.6972168 34.20192383 -101.97338867 33.62817383 C-100.10229492 32.31567383 -100.10229492 32.31567383 -98.10229492 32.31567383 C-98.10229492 31.65567383 -98.10229492 30.99567383 -98.10229492 30.31567383 C-95.1968061 28.27397898 -93.70087447 27.31567383 -90.10229492 27.31567383 C-90.10229492 26.65567383 -90.10229492 25.99567383 -90.10229492 25.31567383 C-76.3286543 17.79812987 -62.40164854 10.20761466 -47.10229492 6.31567383 C-45.89057617 5.98825195 -44.67885742 5.66083008 -43.43041992 5.32348633 C-28.88831826 1.49083309 -14.99894117 -0.03830966 0 0 Z " fill="#E9E9E9" transform="translate(172.102294921875,-0.315673828125)"/>
<path d="M0 0 C15.4672732 13.61367189 22.84059187 30.80999977 24.625 51.1875 C25.36686069 64.16355455 25.36686069 64.16355455 23.3203125 66.98828125 C14.89272529 72.94973119 2.56390748 74.23926372 -7.4375 75.3125 C-8.13721924 75.38799072 -8.83693848 75.46348145 -9.55786133 75.54125977 C-26.68878403 77.20684438 -43.86615204 77.38938971 -61.0625 77.375 C-62.73170502 77.37509064 -62.73170502 77.37509064 -64.43463135 77.37518311 C-78.2267616 77.36455457 -91.98406919 77.20346905 -105.75 76.3125 C-106.96905029 76.23410889 -108.18810059 76.15571777 -109.4440918 76.07495117 C-119.30729342 75.34788076 -129.46298195 74.51152861 -138.875 71.3125 C-139.8134375 71.00570312 -140.751875 70.69890625 -141.71875 70.3828125 C-144.83980656 68.97833705 -146.99129372 67.66075517 -149.375 65.1875 C-152.69870959 47.56951491 -145.88138012 27.64525089 -136.3984375 13.0859375 C-123.06114041 -6.01883941 -103.57414219 -13.8630115 -81.375 -17.8125 C-53.36707365 -21.63260972 -22.67319711 -18.12719267 0 0 Z " fill="#BDBDBD" transform="translate(235.375,196.8125)"/>
<path d="M0 0 C10.32576647 5.15402752 15.50356857 14.80916093 19.11474609 25.42919922 C22.5063093 36.46993432 23.60120088 46.9304389 23.5625 58.4375 C23.56636719 59.58734375 23.57023438 60.7371875 23.57421875 61.921875 C23.57228516 63.60023437 23.57228516 63.60023437 23.5703125 65.3125 C23.56918457 66.32054688 23.56805664 67.32859375 23.56689453 68.3671875 C23.42330475 71.77432929 22.96855195 75.07083105 22.4375 78.4375 C23.36409424 78.48140869 24.29068848 78.52531738 25.24536133 78.57055664 C35.43152945 79.12233095 45.48233986 80.1987238 55.59301758 81.53930664 C58.13230502 81.87596851 60.67246626 82.20524101 63.21289062 82.53320312 C67.22806096 83.054258 71.2409162 83.59050335 75.25238037 84.13934326 C76.67101244 84.33291377 78.08998411 84.52401734 79.50933838 84.71221924 C81.3472294 84.95714533 83.18345607 85.21447001 85.01953125 85.47265625 C86.53317261 85.68160522 86.53317261 85.68160522 88.07739258 85.89477539 C90.4375 86.4375 90.4375 86.4375 92.4375 88.4375 C93.28869251 95.90477978 88.84919188 103.82455824 84.625 109.75 C78.25428793 117.52388156 71.30031379 122.91974246 61.4375 125.4375 C58.40079983 125.73850855 55.39356823 125.75516278 52.34375 125.7265625 C51.4709137 125.721371 50.59807739 125.7161795 49.6987915 125.71083069 C39.75937955 125.55062313 30.01912759 124.24649071 20.1875 122.875 C18.17647388 122.60483843 16.16523642 122.33624615 14.15380859 122.0690918 C10.96110909 121.64483773 7.76857355 121.21959406 4.57662964 120.78968811 C-7.37840898 119.18069341 -19.34762803 117.68817823 -31.3182373 116.20022583 C-34.82468098 115.76403436 -38.33083636 115.32559695 -41.83691406 114.88647461 C-44.06574399 114.60782037 -46.29458497 114.32925461 -48.5234375 114.05078125 C-49.60133545 113.91590805 -50.6792334 113.78103485 -51.78979492 113.64207458 C-57.36364669 112.9479368 -62.93906618 112.27286189 -68.51855469 111.62548828 C-70.21487534 111.42731758 -70.21487534 111.42731758 -71.94546509 111.22514343 C-74.0864479 110.97609951 -76.22784542 110.73058413 -78.36972046 110.48933411 C-90.21318834 109.10928547 -99.61717936 106.75358705 -108.5625 98.4375 C-109.61050781 97.50744141 -109.61050781 97.50744141 -110.6796875 96.55859375 C-119.26266437 88.54241724 -124.96315532 78.6274517 -125.73828125 66.7421875 C-125.74816694 64.63983157 -125.66577088 62.53734125 -125.5625 60.4375 C-120.6724969 58.99227641 -116.37383412 59.82823599 -111.4375 60.5625 C-103.16437033 61.72410921 -94.88562434 62.76758361 -86.5859375 63.71875 C-85.14025894 63.88454056 -85.14025894 63.88454056 -83.66537476 64.05368042 C-79.72951915 64.50376193 -75.7934628 64.95195557 -71.85687256 65.39556885 C-69.05531257 65.71156348 -66.2542041 66.03133764 -63.453125 66.3515625 C-62.60092377 66.44626831 -61.74872253 66.54097412 -60.87069702 66.6385498 C-57.62964839 67.01090778 -54.66694842 67.40268386 -51.5625 68.4375 C-51.5200415 67.7674292 -51.47758301 67.0973584 -51.43383789 66.40698242 C-50.92281967 59.62786787 -49.80837997 53.29851852 -48 46.75 C-47.73823975 45.8010083 -47.47647949 44.8520166 -47.20678711 43.87426758 C-43.62334252 31.50674683 -38.25826472 20.0706522 -29.5625 10.4375 C-29.02109375 9.80457031 -28.4796875 9.17164063 -27.921875 8.51953125 C-20.29884074 0.16625306 -10.95425244 -4.25587511 0 0 Z " fill="#8A8A8A" transform="translate(194.5625,4.5625)"/>
<path d="M0 0 C3.44868587 4.08733141 6.23793154 8.43805907 9 13 C13.31730413 12.52590352 15.33647461 9.96603297 18.25 6.9375 C19.14203125 6.01839844 20.0340625 5.09929687 20.953125 4.15234375 C21.62859375 3.44207031 22.3040625 2.73179688 23 2 C26.60541233 5.43877563 28.71817694 8.59934123 31 13 C31 13.66 31 14.32 31 15 C35.87549176 13.69891569 38.7234779 11.82914252 42.375 8.375 C43.24898437 7.55773437 44.12296875 6.74046875 45.0234375 5.8984375 C45.67570312 5.27195312 46.32796875 4.64546875 47 4 C49.4870421 6.98340555 51.58391138 9.80181327 53.25 13.3125 C53.58515625 14.00988281 53.9203125 14.70726563 54.265625 15.42578125 C54.50796875 15.94527344 54.7503125 16.46476562 55 17 C59.68191549 16.54261927 61.63104174 14.80889606 64.8125 11.4375 C65.99779297 10.19806641 65.99779297 10.19806641 67.20703125 8.93359375 C67.79871094 8.29550781 68.39039063 7.65742187 69 7 C71.72675159 9.40689803 73.11966596 11.92471023 74.6875 15.1875 C75.12449219 16.08855469 75.56148438 16.98960938 76.01171875 17.91796875 C76.33785156 18.60503906 76.66398437 19.29210937 77 20 C82.57891218 19.38996022 84.99170159 16.44852077 88.81640625 12.6171875 C91 11 91 11 93.01171875 10.87890625 C96.07851116 12.60811926 97.38781199 15.11403565 99.25 18.0625 C99.95640625 19.16722656 100.6628125 20.27195312 101.390625 21.41015625 C102.18726563 22.69212891 102.18726563 22.69212891 103 24 C106.29838923 23.68340068 107.73301403 23.25447852 110.16796875 20.93359375 C111.16763672 19.69802734 111.16763672 19.69802734 112.1875 18.4375 C113.42033201 16.92651469 114.68344367 15.43862115 116 14 C116.66 14 117.32 14 118 14 C119.46582355 16.14281033 120.81123514 18.26706396 122.125 20.5 C122.49753906 21.12003906 122.87007812 21.74007812 123.25390625 22.37890625 C124.17578953 23.91537838 125.08873475 25.45720675 126 27 C130.10447392 26.48223379 131.95699523 24.35372556 134.75 21.4375 C135.94882812 20.19806641 135.94882812 20.19806641 137.171875 18.93359375 C137.77515625 18.29550781 138.3784375 17.65742187 139 17 C143.24404412 20.88026891 146.10917547 25.04254346 149 30 C153.41510774 29.51286902 155.30446645 28.14946803 158.3125 24.9375 C159.00988281 24.20402344 159.70726562 23.47054687 160.42578125 22.71484375 C160.94527344 22.14894531 161.46476563 21.58304688 162 21 C165.85674376 22.4756237 167.21823735 24.47006893 169.25 28 C170.03117187 29.3303125 170.03117187 29.3303125 170.828125 30.6875 C172 33 172 33 172 35 C178.35945776 33.75913019 181.18350306 29.85530676 185 25 C188 26 188 26 189.38671875 28.1796875 C190.03060547 29.51386719 190.03060547 29.51386719 190.6875 30.875 C191.12449219 31.75929688 191.56148437 32.64359375 192.01171875 33.5546875 C193 36 193 36 193 39 C187.95771162 46.33262359 179.20143234 50.26618922 171 53 C157.04342979 53.6682816 143.55157291 52.36278946 129.75 50.4375 C127.73897388 50.16733843 125.72773642 49.89874615 123.71630859 49.6315918 C120.52360909 49.20733773 117.33107355 48.78209406 114.13912964 48.35218811 C102.18409102 46.74319341 90.21487197 45.25067823 78.2442627 43.76272583 C74.73781902 43.32653436 71.23166364 42.88809695 67.72558594 42.44897461 C65.49675601 42.17032037 63.26791503 41.89175461 61.0390625 41.61328125 C59.96116455 41.47840805 58.8832666 41.34353485 57.77270508 41.20457458 C52.19885331 40.5104368 46.62343382 39.83536189 41.04394531 39.18798828 C39.34762466 38.98981758 39.34762466 38.98981758 37.61703491 38.78764343 C35.4760521 38.53859951 33.33465458 38.29308413 31.19277954 38.05183411 C19.35045374 36.67191855 9.94350981 34.31678658 1 26 C0.278125 25.35675781 -0.44375 24.71351562 -1.1875 24.05078125 C-5.77132437 19.76187205 -8.5285737 15.76666137 -11 10 C-9.68 10 -8.36 10 -7 10 C-6.773125 9.46375 -6.54625 8.9275 -6.3125 8.375 C-4.56617944 5.21499137 -2.3597151 2.7323017 0 0 Z " fill="#9A9A9A" transform="translate(85,77)"/>
<path d="M0 0 C1.25514404 0.11674072 1.25514404 0.11674072 2.53564453 0.23583984 C3.44427246 0.32816895 4.35290039 0.42049805 5.2890625 0.515625 C6.71581299 0.65605225 6.71581299 0.65605225 8.17138672 0.79931641 C14.15848326 1.4136066 20.09615399 2.19540804 26.0390625 3.140625 C35.11420233 4.5838736 44.22079818 5.6291788 53.3515625 6.640625 C66.22745072 8.07194483 79.07546484 9.65580623 91.9140625 11.390625 C92.69184052 11.49485779 93.46961853 11.59909058 94.27096558 11.70648193 C102.85734406 12.86018422 111.40859596 14.10081311 119.9140625 15.765625 C115.51953125 21.234375 115.51953125 21.234375 113.9140625 22.765625 C112.9240625 22.765625 111.9340625 22.765625 110.9140625 22.765625 C112.1880214 24.80395924 113.52468173 26.80414626 114.9140625 28.765625 C115.5740625 28.765625 116.2340625 28.765625 116.9140625 28.765625 C118.55082507 26.8055969 118.55082507 26.8055969 119.9140625 24.765625 C118.4290625 24.270625 118.4290625 24.270625 116.9140625 23.765625 C117.51768889 22.57657202 118.1745568 21.41448316 118.8515625 20.265625 C119.39103516 19.29109375 119.39103516 19.29109375 119.94140625 18.296875 C124.88304957 14.46098553 134.49485143 17.03701686 140.390625 17.75390625 C141.71087677 17.90827652 141.71087677 17.90827652 143.05780029 18.06576538 C145.88554225 18.39792995 148.71230097 18.73772634 151.5390625 19.078125 C153.48776053 19.3092743 155.43649115 19.54014897 157.38525391 19.77075195 C169.84801312 21.25142731 182.31038347 22.74536257 194.74267578 24.46582031 C196.18062241 24.66435848 197.61910248 24.85907371 199.05810547 25.04980469 C200.9487627 25.30056459 202.8377521 25.56381353 204.7265625 25.828125 C206.19029297 26.03115234 206.19029297 26.03115234 207.68359375 26.23828125 C209.9140625 26.765625 209.9140625 26.765625 211.9140625 28.765625 C212.40793011 32.94171138 211.27096222 35.99963801 209.6640625 39.828125 C209.24640625 40.85035156 208.82875 41.87257812 208.3984375 42.92578125 C206.89625861 45.79968664 205.32148468 47.6205501 202.9140625 49.765625 C200.04952392 46.35546003 198.56702684 42.85867956 196.9140625 38.765625 C192.82800843 40.12764302 191.40202193 42.70706583 188.828125 46.05078125 C186.9140625 47.765625 186.9140625 47.765625 184.45703125 48.41796875 C181.9140625 47.765625 181.9140625 47.765625 179.67578125 44.921875 C178.96562879 43.71395213 178.27477214 42.49452001 177.6015625 41.265625 C177.06305664 40.33556641 177.06305664 40.33556641 176.51367188 39.38671875 C175.63047574 37.85584545 174.77002947 36.31188792 173.9140625 34.765625 C169.8528609 36.51629615 167.64016043 39.10594317 164.79296875 42.40234375 C162.9140625 43.765625 162.9140625 43.765625 160.4609375 43.8515625 C156.82251209 42.30020934 155.66716593 40.02909663 153.6015625 36.703125 C152.55548828 35.04603516 152.55548828 35.04603516 151.48828125 33.35546875 C150.96878906 32.50082031 150.44929687 31.64617187 149.9140625 30.765625 C148.82888139 31.68010346 147.74601512 32.59732907 146.6640625 33.515625 C146.02339844 34.05832031 145.38273438 34.60101563 144.72265625 35.16015625 C142.77505007 36.82802282 142.77505007 36.82802282 140.7265625 39.203125 C138.9140625 40.765625 138.9140625 40.765625 137.03515625 40.703125 C133.91326694 39.32328442 132.91836381 37.21072694 131.1640625 34.328125 C130.24367187 32.84505859 130.24367187 32.84505859 129.3046875 31.33203125 C127.9140625 28.765625 127.9140625 28.765625 127.9140625 26.765625 C127.2128125 27.466875 126.5115625 28.168125 125.7890625 28.890625 C125.33273438 29.33921875 124.87640625 29.7878125 124.40625 30.25 C123.37975106 31.29262196 122.38606995 32.36825524 121.421875 33.46875 C119.9140625 35.140625 119.9140625 35.140625 116.9140625 37.765625 C114.49609375 37.80859375 114.49609375 37.80859375 111.9140625 36.765625 C109.67578125 34.04296875 109.67578125 34.04296875 107.6015625 30.703125 C106.90417969 29.59839844 106.20679688 28.49367188 105.48828125 27.35546875 C104.96878906 26.50082031 104.44929688 25.64617187 103.9140625 24.765625 C99.04063729 25.45077775 96.56504762 28.79646083 93.23046875 32.1484375 C90.9140625 33.765625 90.9140625 33.765625 88.3359375 33.88671875 C84.84435477 32.27045384 84.16573598 30.15885711 82.6015625 26.703125 C82.08980469 25.59839844 81.57804687 24.49367188 81.05078125 23.35546875 C80.67566406 22.50082031 80.30054688 21.64617187 79.9140625 20.765625 C78.82888139 21.68010346 77.74601512 22.59732907 76.6640625 23.515625 C76.02210938 24.05832031 75.38015625 24.60101563 74.71875 25.16015625 C72.77593323 26.82039906 72.77593323 26.82039906 70.7890625 29.203125 C68.9140625 30.765625 68.9140625 30.765625 66.50390625 30.7109375 C62.89913347 29.39516825 62.27571772 27.59036929 60.6015625 24.203125 C60.08980469 23.19121094 59.57804687 22.17929688 59.05078125 21.13671875 C58.67566406 20.35425781 58.30054688 19.57179688 57.9140625 18.765625 C54.03506601 18.765625 51.16718547 23.20129265 48.51953125 25.796875 C45.9140625 27.765625 45.9140625 27.765625 43.328125 28.421875 C40.9140625 27.765625 40.9140625 27.765625 38.89453125 25.140625 C38.30285156 24.026875 37.71117187 22.913125 37.1015625 21.765625 C36.49699219 20.651875 35.89242187 19.538125 35.26953125 18.390625 C34.82222656 17.524375 34.37492187 16.658125 33.9140625 15.765625 C30.50558355 18.62403242 27.23519493 21.41461979 24.2265625 24.703125 C21.9140625 26.765625 21.9140625 26.765625 19.96484375 26.66796875 C17.20612063 25.45413058 16.36263427 23.93635105 14.7890625 21.390625 C14.29148437 20.59914063 13.79390625 19.80765625 13.28125 18.9921875 C12.60449219 17.89003906 12.60449219 17.89003906 11.9140625 16.765625 C11.2540625 15.775625 10.5940625 14.785625 9.9140625 13.765625 C7.6040625 16.735625 5.2940625 19.705625 2.9140625 22.765625 C1.2640625 22.435625 -0.3859375 22.105625 -2.0859375 21.765625 C-3.1953125 20.05859375 -3.1953125 20.05859375 -3.8359375 17.953125 C-4.05765625 17.26605469 -4.279375 16.57898438 -4.5078125 15.87109375 C-4.69859375 15.17628906 -4.889375 14.48148438 -5.0859375 13.765625 C-5.27542969 13.11722656 -5.46492188 12.46882813 -5.66015625 11.80078125 C-6.14418626 9.4872066 -6.18316402 7.37702853 -6.1484375 5.015625 C-6.13941406 4.21640625 -6.13039063 3.4171875 -6.12109375 2.59375 C-6.10949219 1.99046875 -6.09789063 1.3871875 -6.0859375 0.765625 C-3.70198454 -0.42635148 -2.62959603 -0.24782729 0 0 Z " fill="#474747" transform="translate(75.0859375,64.234375)"/>
<path d="M0 0 C9.82191807 0.58563234 19.49900854 1.61879565 29.25 2.9375 C32.00358454 3.30323625 34.75760266 3.66563424 37.51171875 4.02734375 C38.81544434 4.19862793 40.11916992 4.36991211 41.46240234 4.54638672 C45.6576228 5.08432458 49.85598823 5.5608134 54.0625 6 C67.07521712 7.36728997 80.03607541 9.23813725 93 11 C94.68992405 17.02742212 92.42531012 22.21472349 89.63671875 27.6640625 C82.69724201 39.53469197 73.69971351 48.14232305 60.30078125 52.08984375 C55.90977504 53.13909414 51.68915556 53.34642721 47.1875 53.3125 C46.39923828 53.30686035 45.61097656 53.3012207 44.79882812 53.29541016 C33.52264948 53.06183878 23.41185243 50.03019455 15.03125 42.1484375 C5.61530223 31.78263535 -0.23892887 21.36966679 -0.0625 7.1875 C-0.05798828 6.49462891 -0.05347656 5.80175781 -0.04882812 5.08789062 C-0.03713156 3.39188932 -0.01919924 1.69593297 0 0 Z " fill="#BDBDBD" transform="translate(126,116)"/>
<path d="M0 0 C3.9036874 3.46994436 6.36588975 7.55224006 9 12 C12.29838923 11.68340068 13.73301403 11.25447852 16.16796875 8.93359375 C16.83441406 8.10988281 17.50085938 7.28617187 18.1875 6.4375 C19.42033201 4.92651469 20.68344367 3.43862115 22 2 C22.66 2 23.32 2 24 2 C25.46582355 4.14281033 26.81123514 6.26706396 28.125 8.5 C28.49753906 9.12003906 28.87007812 9.74007812 29.25390625 10.37890625 C30.17578953 11.91537838 31.08873475 13.45720675 32 15 C36.10447392 14.48223379 37.95699523 12.35372556 40.75 9.4375 C41.54921875 8.61121094 42.3484375 7.78492187 43.171875 6.93359375 C43.77515625 6.29550781 44.3784375 5.65742187 45 5 C49.24404412 8.88026891 52.10917547 13.04254346 55 18 C59.41510774 17.51286902 61.30446645 16.14946803 64.3125 12.9375 C65.00988281 12.20402344 65.70726562 11.47054687 66.42578125 10.71484375 C66.94527344 10.14894531 67.46476562 9.58304688 68 9 C71.85674376 10.4756237 73.21823735 12.47006893 75.25 16 C76.03117187 17.3303125 76.03117187 17.3303125 76.828125 18.6875 C78 21 78 21 78 23 C84.35945776 21.75913019 87.18350306 17.85530676 91 13 C94 14 94 14 95.38671875 16.1796875 C96.03060547 17.51386719 96.03060547 17.51386719 96.6875 18.875 C97.12449219 19.75929688 97.56148438 20.64359375 98.01171875 21.5546875 C99 24 99 24 99 27 C93.95771162 34.33262359 85.20143234 38.26618922 77 41 C62.15575927 41.77095718 47.74440103 40.14532697 33.0625 38.125 C30.99950158 37.85170998 28.93635042 37.57957048 26.87304688 37.30859375 C21.24505293 36.56449974 15.62143385 35.79205412 10 35 C9.25852722 34.89586792 8.51705444 34.79173584 7.75311279 34.68444824 C-2.81478015 33.18521985 -2.81478015 33.18521985 -4 32 C-4.27603378 25.03545551 -3.54702712 18.38711064 -2.5625 11.5 C-2.42779297 10.4996875 -2.29308594 9.499375 -2.15429688 8.46875 C-1.13262135 1.13262135 -1.13262135 1.13262135 0 0 Z " fill="#8B8B8B" transform="translate(179,89)"/>
<path d="M0 0 C2.10478604 0.11409682 4.20884577 0.24165361 6.3125 0.375 C7.48425781 0.44460937 8.65601563 0.51421875 9.86328125 0.5859375 C13 1 13 1 16 3 C15.07213211 4.00894372 14.13231567 5.00690907 13.1875 6 C12.40439453 6.8353125 12.40439453 6.8353125 11.60546875 7.6875 C10 9 10 9 7 9 C8.2739589 11.03833424 9.61061923 13.03852126 11 15 C11.66 15 12.32 15 13 15 C14.63676257 13.0399719 14.63676257 13.0399719 16 11 C15.01 10.67 14.02 10.34 13 10 C13.60362639 8.81094702 14.2604943 7.64885816 14.9375 6.5 C15.29714844 5.8503125 15.65679687 5.200625 16.02734375 4.53125 C20.96898707 0.69536053 30.58078893 3.27139186 36.4765625 3.98828125 C37.79681427 4.14265152 37.79681427 4.14265152 39.14373779 4.30014038 C41.97147975 4.63230495 44.79823847 4.97210134 47.625 5.3125 C49.57369803 5.5436493 51.52242865 5.77452397 53.47119141 6.00512695 C65.93395062 7.48580231 78.39632097 8.97973757 90.82861328 10.70019531 C92.26655991 10.89873348 93.70503998 11.09344871 95.14404297 11.28417969 C97.0347002 11.53493959 98.9236896 11.79818853 100.8125 12.0625 C101.78832031 12.19785156 102.76414062 12.33320312 103.76953125 12.47265625 C106 13 106 13 108 15 C108.49386761 19.17608638 107.35689972 22.23401301 105.75 26.0625 C105.33234375 27.08472656 104.9146875 28.10695313 104.484375 29.16015625 C102.98219611 32.03406164 101.40742218 33.8549251 99 36 C96.13546142 32.58983503 94.65296434 29.09305456 93 25 C88.91394593 26.36201802 87.48795943 28.94144083 84.9140625 32.28515625 C83 34 83 34 80.54296875 34.65234375 C78 34 78 34 75.76171875 31.15625 C75.05156629 29.94832713 74.36070964 28.72889501 73.6875 27.5 C73.32849609 26.87996094 72.96949219 26.25992188 72.59960938 25.62109375 C71.71641324 24.09022045 70.85596697 22.54626292 70 21 C65.9387984 22.75067115 63.72609793 25.34031817 60.87890625 28.63671875 C59 30 59 30 56.546875 30.0859375 C52.90844959 28.53458434 51.75310343 26.26347163 49.6875 22.9375 C48.99011719 21.83277344 48.29273438 20.72804688 47.57421875 19.58984375 C46.79498047 18.30787109 46.79498047 18.30787109 46 17 C44.91481889 17.91447846 43.83195262 18.83170407 42.75 19.75 C42.10933594 20.29269531 41.46867187 20.83539063 40.80859375 21.39453125 C38.86098757 23.06239782 38.86098757 23.06239782 36.8125 25.4375 C35 27 35 27 33.12109375 26.9375 C29.99920444 25.55765942 29.00430131 23.44510194 27.25 20.5625 C26.63640625 19.57378906 26.0228125 18.58507812 25.390625 17.56640625 C24 15 24 15 24 13 C23.29875 13.70125 22.5975 14.4025 21.875 15.125 C21.41867188 15.57359375 20.96234375 16.0221875 20.4921875 16.484375 C19.46568856 17.52699696 18.47200745 18.60263024 17.5078125 19.703125 C16 21.375 16 21.375 13 24 C10.6171875 24.0703125 10.6171875 24.0703125 8 23 C6.10176714 20.83399135 4.6350565 18.91073183 3.125 16.5 C2.72224854 15.87013184 2.31949707 15.24026367 1.90454102 14.59130859 C-0.33970558 10.83731353 -1.60012601 8.11238511 -1.0625 3.625 C-0.711875 2.42875 -0.36125 1.2325 0 0 Z " fill="#424242" transform="translate(179,78)"/>
<path d="M0 0 C13.69373408 0.56368813 27.25998403 2.0199015 40.87158203 3.58398438 C44.54776741 4.00547676 48.22496357 4.41720101 51.90234375 4.828125 C54.23704443 5.09317575 56.57168241 5.35877956 58.90625 5.625 C60.55747864 5.8094165 60.55747864 5.8094165 62.24206543 5.99755859 C63.24821899 6.11437988 64.25437256 6.23120117 65.29101562 6.3515625 C66.17905884 6.45291504 67.06710205 6.55426758 67.98205566 6.65869141 C70 7 70 7 71 8 C71.07325436 10.6986905 71.09222351 13.36502556 71.0625 16.0625 C71.041875 18.681875 71.02125 21.30125 71 24 C64.4 23.34 57.8 22.68 51 22 C50.34 23.32 49.68 24.64 49 26 C48.34 26.99 47.68 27.98 47 29 C47.66 29.33 48.32 29.66 49 30 C47.63016497 33.16115776 47.0109362 33.9927092 44 36 C40 30.25 40 30.25 40 28 C41.65071396 26.97388051 43.31970006 25.97691857 45 25 C46.0212944 24.02175783 47.02603624 23.02537534 48 22 C38.45231345 19.90107095 28.81011545 18.70089772 19.125 17.4375 C16.59393093 17.1061767 14.06300985 16.77385319 11.53244019 16.43873596 C9.9679028 16.23163587 8.40307343 16.02672617 6.83792114 15.82432556 C3.50440619 15.38386888 0.23568027 14.93257495 -3 14 C-3 12.35 -3 10.7 -3 9 C9.69738235 9.6912615 22.34184863 10.79754563 35 12 C35 9.69 35 7.38 35 5 C34.06542969 4.95101562 33.13085938 4.90203125 32.16796875 4.8515625 C21.40227506 4.23879485 10.71514859 3.19963077 0 2 C0 1.34 0 0.68 0 0 Z " fill="#828282" transform="translate(146,59)"/>
<path d="M0 0 C2.10478604 0.11409682 4.20884577 0.24165361 6.3125 0.375 C7.48425781 0.44460937 8.65601563 0.51421875 9.86328125 0.5859375 C13 1 13 1 16 3 C15.07213211 4.00894372 14.13231567 5.00690907 13.1875 6 C12.40439453 6.8353125 12.40439453 6.8353125 11.60546875 7.6875 C10 9 10 9 7 9 C8.2739589 11.03833424 9.61061923 13.03852126 11 15 C11.66 15 12.32 15 13 15 C14.63676257 13.0399719 14.63676257 13.0399719 16 11 C15.01 10.67 14.02 10.34 13 10 C13.60362639 8.81094702 14.2604943 7.64885816 14.9375 6.5 C15.29714844 5.8503125 15.65679687 5.200625 16.02734375 4.53125 C20.94998587 0.71010998 31.19663273 3.34185627 37.14453125 4.05859375 C38.07673996 4.1672023 39.00894867 4.27581085 39.96940613 4.38771057 C41.92349674 4.61644993 43.87729738 4.84767915 45.83081055 5.08129883 C48.820774 5.43848844 51.81163419 5.78723667 54.80273438 6.13476562 C56.70839134 6.35888229 58.61399241 6.58347487 60.51953125 6.80859375 C61.41122513 6.91280136 62.30291901 7.01700897 63.22163391 7.12437439 C64.0531749 7.22440262 64.88471588 7.32443085 65.74145508 7.42749023 C66.46931717 7.51409409 67.19717926 7.60069794 67.94709778 7.68992615 C70.00998571 8.00150826 71.98574319 8.46070339 74 9 C72.51864337 12.4564988 71.08721981 14.80359629 68 17 C64.55530373 17.27054672 61.2305942 16.81096956 57.8125 16.375 C56.34876953 16.21475342 56.34876953 16.21475342 54.85546875 16.05126953 C51.90058348 15.72289537 48.95056146 15.36499724 46 15 C43.5584142 14.70978329 41.11652781 14.42224 38.67456055 14.13525391 C37.26768901 13.9668779 35.86152033 13.79247282 34.45629883 13.61083984 C32.64065601 13.38103496 30.82031373 13.18928041 29 13 C27.94941406 12.88011719 26.89882812 12.76023437 25.81640625 12.63671875 C21.86661712 13.14619224 20.85402269 14.85524476 18.4375 17.9375 C14.57682501 22.83044103 14.57682501 22.83044103 11.22265625 23.81640625 C10.48917969 23.87699219 9.75570312 23.93757813 9 24 C7.50709917 21.96724211 6.03108071 19.92521889 4.5625 17.875 C4.14162109 17.30523437 3.72074219 16.73546875 3.28710938 16.1484375 C0.02747532 11.55887275 -1.43754422 7.87529058 -0.5625 2.125 C-0.376875 1.42375 -0.19125 0.7225 0 0 Z " fill="#343434" transform="translate(179,78)"/>
<path d="M0 0 C12.12769965 0.54025083 24.00849656 2.15821873 36 4 C35.67 5.98 35.34 7.96 35 10 C35.99 10.33 36.98 10.66 38 11 C37.67 11.66 37.34 12.32 37 13 C24.46 11.68 11.92 10.36 -1 9 C-1 9.66 -1 10.32 -1 11 C0.80791016 10.95359375 0.80791016 10.95359375 2.65234375 10.90625 C9.01121176 10.90625 15.25943009 11.72563281 21.5625 12.5 C22.76197266 12.64308594 23.96144531 12.78617188 25.19726562 12.93359375 C28.13210815 13.28437174 31.06628323 13.63994859 34 14 C34 16.31 34 18.62 34 21 C25.45267997 21.20875408 17.22108621 20.61014235 8.75 19.5 C7.61175781 19.35691406 6.47351563 19.21382812 5.30078125 19.06640625 C2.53294558 18.7175194 -0.23385089 18.36197404 -3 18 C-2.85929583 16.42933996 -2.71382089 14.85910694 -2.56640625 13.2890625 C-2.48592041 12.41459473 -2.40543457 11.54012695 -2.32250977 10.63916016 C-1.874889 6.97619231 -0.98692121 3.55291637 0 0 Z " fill="#999999" transform="translate(147,50)"/>
<path d="M0 0 C0.5983667 0.09087891 1.1967334 0.18175781 1.81323242 0.27539062 C18.33088517 2.75590671 18.33088517 2.75590671 35 3 C35.495 3.99 35.495 3.99 36 5 C38.0321813 5.43597239 38.0321813 5.43597239 40.48046875 5.5625 C41.39763672 5.63726562 42.31480469 5.71203125 43.25976562 5.7890625 C44.22591797 5.85867187 45.19207031 5.92828125 46.1875 6 C57.65212019 6.84287201 57.65212019 6.84287201 63 9 C54.39111025 19.53183764 54.39111025 19.53183764 49.5859375 20.47265625 C47 20 47 20 44.98046875 17.375 C44.38878906 16.26125 43.79710937 15.1475 43.1875 14 C42.58292969 12.88625 41.97835937 11.7725 41.35546875 10.625 C40.68451172 9.325625 40.68451172 9.325625 40 8 C36.59152105 10.85840742 33.32113243 13.64899479 30.3125 16.9375 C28 19 28 19 26.05078125 18.90234375 C23.29205813 17.68850558 22.44857177 16.17072605 20.875 13.625 C20.37742187 12.83351563 19.87984375 12.04203125 19.3671875 11.2265625 C18.91601562 10.49179688 18.46484375 9.75703125 18 9 C17.34 8.01 16.68 7.02 16 6 C13.69 8.97 11.38 11.94 9 15 C4 14 4 14 2.890625 12.36328125 C2.67921875 11.68652344 2.4678125 11.00976562 2.25 10.3125 C2.02828125 9.64863281 1.8065625 8.98476562 1.578125 8.30078125 C0.88792116 5.5539565 0.43229814 2.7979296 0 0 Z " fill="#585858" transform="translate(69,72)"/>
<path d="M0 0 C-0.14063135 2.29199177 -0.28765943 4.58359186 -0.4375 6.875 C-0.51871094 8.15117188 -0.59992188 9.42734375 -0.68359375 10.7421875 C-1 14 -1 14 -2 16 C-6.07556314 15.59545022 -10.15064704 15.18640048 -14.2253418 14.77319336 C-15.61128533 14.63328585 -16.99735316 14.49460403 -18.38354492 14.35717773 C-20.37711394 14.15932083 -22.3702059 13.9566757 -24.36328125 13.75390625 C-25.56251221 13.63345947 -26.76174316 13.5130127 -27.99731445 13.38891602 C-31 13 -31 13 -34 12 C-34 12.99 -34 13.98 -34 15 C-32.40671875 14.95359375 -32.40671875 14.95359375 -30.78125 14.90625 C-24.96417911 14.90625 -19.25723997 15.73558177 -13.5 16.5 C-12.39140625 16.64308594 -11.2828125 16.78617188 -10.140625 16.93359375 C-7.42646454 17.28456278 -4.71299335 17.64013917 -2 18 C-2.33 20.31 -2.66 22.62 -3 25 C-27.98265839 23.02501099 -27.98265839 23.02501099 -38 21 C-36.17778624 14.38757278 -33.94776396 8.19479329 -31 2 C-30.67 2.66 -30.34 3.32 -30 4 C-27.92350698 4.43901334 -27.92350698 4.43901334 -25.375 4.5625 C-24.39660156 4.6346875 -23.41820312 4.706875 -22.41015625 4.78125 C-21.28480469 4.8534375 -20.15945312 4.925625 -19 5 C-17.64449228 5.09318492 -16.28902498 5.18695913 -14.93359375 5.28125 C-11.28974825 5.53182348 -7.64513006 5.76879742 -4 6 C-4.99 5.67 -5.98 5.34 -7 5 C-5.22678182 1.07358831 -4.52021524 0 0 0 Z " fill="#9C9C9C" transform="translate(186,27)"/>
<path d="M0 0 C1.75098126 2.62647188 3.38731308 5.28775382 5 8 C-1.4060876 15.42352504 -8.69956747 19.89985582 -18 23 C-30.89405572 23.5937315 -43.49507247 22.68647871 -56.26904297 20.97363281 C-58.92116758 20.61882356 -61.57534963 20.2847119 -64.23046875 19.953125 C-65.94285976 19.73294532 -67.65510586 19.51163498 -69.3671875 19.2890625 C-70.14842987 19.19001617 -70.92967224 19.09096985 -71.73458862 18.98892212 C-76.02759858 18.40576844 -79.91716573 17.52569497 -84 16 C-84 15.34 -84 14.68 -84 14 C-73.1067667 13.75058953 -62.51908544 14.7378053 -51.703125 15.93359375 C-28.32589628 18.41895255 -28.32589628 18.41895255 -7.4375 9.0625 C-4.14658631 6.34438902 -2.04163897 3.75061472 0 0 Z " fill="#828282" transform="translate(274,107)"/>
<path d="M0 0 C8.03901014 -0.32566133 15.87779277 0.54871112 23.83422852 1.59912109 C25.95662907 1.8775091 28.08059099 2.14041066 30.20507812 2.40234375 C31.56261896 2.57720393 32.92004573 2.75295248 34.27734375 2.9296875 C35.49671631 3.08679199 36.71608887 3.24389648 37.97241211 3.40576172 C41 4 41 4 44 6 C43.85098119 10.91762088 41.183786 13.35873958 37.984375 16.7421875 C36 18 36 18 33.53515625 18.07421875 C29.90079096 16.53423346 28.74819999 14.25557626 26.6875 10.9375 C25.64142578 9.28041016 25.64142578 9.28041016 24.57421875 7.58984375 C23.79498047 6.30787109 23.79498047 6.30787109 23 5 C21.91481889 5.91447846 20.83195262 6.83170407 19.75 7.75 C19.10933594 8.29269531 18.46867187 8.83539063 17.80859375 9.39453125 C15.86098757 11.06239782 15.86098757 11.06239782 13.8125 13.4375 C12 15 12 15 10.15234375 15.00390625 C6.83214575 13.45528395 5.50748749 10.56583929 3.75 7.5 C3.38648438 6.89285156 3.02296875 6.28570312 2.6484375 5.66015625 C0 1.1896734 0 1.1896734 0 0 Z " fill="#414141" transform="translate(202,90)"/>
<path d="M0 0 C2 2 2 2 2.25 4.5 C2 7 2 7 0 9 C-2.55560279 9.03582621 -4.96187485 8.9535821 -7.5 8.75 C-8.22324463 8.6984375 -8.94648926 8.646875 -9.69165039 8.59375 C-14.46275541 8.21883562 -19.0679084 7.53909215 -23.73828125 6.4765625 C-27.46361865 5.69160367 -31.21317067 5.36646735 -35 5 C-32.57056303 -0.58770504 -32.57056303 -0.58770504 -30.32421875 -2.2109375 C-22.17033237 -4.97914767 -8.1509201 -1.93948799 0 0 Z " fill="#353535" transform="translate(285,91)"/>
<path d="M0 0 C2.10478604 0.11409682 4.20884577 0.24165361 6.3125 0.375 C7.48425781 0.44460937 8.65601563 0.51421875 9.86328125 0.5859375 C13 1 13 1 16 3 C15.07213211 4.00894372 14.13231567 5.00690907 13.1875 6 C12.40439453 6.8353125 12.40439453 6.8353125 11.60546875 7.6875 C10 9 10 9 7 9 C8.2739589 11.03833424 9.61061923 13.03852126 11 15 C11.66 15 12.32 15 13 15 C14.63676257 13.0399719 14.63676257 13.0399719 16 11 C15.34 10.67 14.68 10.34 14 10 C16.97 10.66 19.94 11.32 23 12 C20.12470211 16.64471197 17.21111194 20.47641654 13 24 C10.61328125 24.06640625 10.61328125 24.06640625 8 23 C6.10176714 20.83399135 4.6350565 18.91073183 3.125 16.5 C2.72224854 15.87013184 2.31949707 15.24026367 1.90454102 14.59130859 C-0.33970558 10.83731353 -1.60012601 8.11238511 -1.0625 3.625 C-0.711875 2.42875 -0.36125 1.2325 0 0 Z " fill="#424242" transform="translate(179,78)"/>
<path d="M0 0 C-0.33 1.32 -0.66 2.64 -1 4 C-8.26 3.34 -15.52 2.68 -23 2 C-23 2.66 -23 3.32 -23 4 C-21.865625 3.938125 -20.73125 3.87625 -19.5625 3.8125 C-11.94824534 3.7757753 -4.44618822 5.56376622 3 7 C2.67 7.66 2.34 8.32 2 9 C-7.76041066 9.32001346 -17.32032595 8.11306313 -27 7 C-27 7.66 -27 8.32 -27 9 C-24.36 9 -21.72 9 -19 9 C-18.67 9.66 -18.34 10.32 -18 11 C-18.99 12.485 -18.99 12.485 -20 14 C-22.8203125 14.29296875 -22.8203125 14.29296875 -26.125 14.1875 C-27.22070312 14.16042969 -28.31640625 14.13335938 -29.4453125 14.10546875 C-30.70988281 14.05326172 -30.70988281 14.05326172 -32 14 C-30.781756 11.20819083 -29.48854017 8.64821682 -28 6 C-27.33484375 4.69289063 -27.33484375 4.69289063 -26.65625 3.359375 C-20.23467809 -6.51530634 -9.83425048 -2.40658158 0 0 Z " fill="#9A9A9A" transform="translate(188,15)"/>
<path d="M0 0 C2.51662648 0.06467965 4.99184871 0.1909155 7.5 0.375 C8.20253906 0.41882812 8.90507812 0.46265625 9.62890625 0.5078125 C14.87145769 0.87145769 14.87145769 0.87145769 16 2 C16.14300125 5.66655195 16.04216733 9.33144219 16 13 C3.81758086 12.42919898 -8.21811694 10.96263875 -20.30981445 9.41601562 C-23.58685848 8.99688457 -26.86462696 8.58384593 -30.14257812 8.171875 C-32.24223138 7.90659712 -34.34184236 7.6409843 -36.44140625 7.375 C-37.41332413 7.25205566 -38.385242 7.12911133 -39.38661194 7.00244141 C-43.94167396 6.41904907 -48.4766757 5.80037121 -53 5 C-53 4.34 -53 3.68 -53 3 C-32.20645008 4.39038707 -11.6353945 7.16279538 9 10 C9 7.69 9 5.38 9 3 C7.081875 3.061875 7.081875 3.061875 5.125 3.125 C2.9453125 3.1953125 2.9453125 3.1953125 1 3 C0.34 2.34 -0.32 1.68 -1 1 C-0.67 0.67 -0.34 0.34 0 0 Z " fill="#797979" transform="translate(201,45)"/>
<path d="M0 0 C10.13114935 0.46105829 20.00299865 1.2092328 30 3 C29.67 5.31 29.34 7.62 29 10 C13.655 8.515 13.655 8.515 -2 7 C-1.34 6.67 -0.68 6.34 0 6 C0 4.02 0 2.04 0 0 Z " fill="#8B8B8B" transform="translate(181,65)"/>
<path d="M0 0 C2.54250021 0.11474466 5.08347338 0.2414697 7.625 0.375 C8.33785156 0.4059375 9.05070312 0.436875 9.78515625 0.46875 C14.17152608 0.71020155 17.8594834 1.39342731 22 3 C13.31354509 13.62672835 13.31354509 13.62672835 8.5546875 14.39453125 C6 14 6 14 4.19921875 11.953125 C3.45091797 10.61507812 3.45091797 10.61507812 2.6875 9.25 C2.17574219 8.36828125 1.66398437 7.4865625 1.13671875 6.578125 C0 4 0 4 0 0 Z " fill="#575757" transform="translate(110,78)"/>
<path d="M0 0 C7.44353792 -0.29642408 14.75693202 0.1433908 22 2 C22.66 2.66 23.32 3.32 24 4 C23.01 4.5259375 23.01 4.5259375 22 5.0625 C18.60720334 7.25368117 15.9230228 9.83442093 13.0625 12.671875 C11 14 11 14 8.45703125 14.11328125 C4.79120105 12.452293 4.20911995 10.08231059 2.6875 6.4375 C1.91986328 4.64119141 1.91986328 4.64119141 1.13671875 2.80859375 C0.76160156 1.88175781 0.38648438 0.95492187 0 0 Z " fill="#575757" transform="translate(155,84)"/>
<path d="M0 0 C5.19209404 -0.21192221 9.126739 0.4087311 14 2 C13.0409375 3.175625 13.0409375 3.175625 12.0625 4.375 C10.01857687 6.79539281 10.01857687 6.79539281 9 9 C5.7 9 2.4 9 -1 9 C-1 9.66 -1 10.32 -1 11 C1.97 11 4.94 11 8 11 C8 13.31 8 15.62 8 18 C4.37 18 0.74 18 -3 18 C-2.48032304 11.76387648 -1.67411767 6.0268236 0 0 Z " fill="#9C9C9C" transform="translate(147,50)"/>
<path d="M0 0 C14.17879067 1.00663276 28.32550703 2.27499451 42.46380615 3.73791504 C44.14351372 3.9114925 45.82340417 4.08331002 47.503479 4.2532959 C64.01768124 5.93050995 64.01768124 5.93050995 72 8 C72 8.66 72 9.32 72 10 C61.90064326 9.48094102 51.91697486 8.61954082 41.88504028 7.32901001 C38.31533215 6.8699777 34.743754 6.4261565 31.171875 5.984375 C30.4707106 5.89754959 29.7695462 5.81072418 29.0471344 5.7212677 C22.0334332 4.86333849 15.00717271 4.18320284 7.96606445 3.59594727 C2.1976524 3.0988262 2.1976524 3.0988262 0 2 C0 1.34 0 0.68 0 0 Z " fill="#767676" transform="translate(144,68)"/>
<path d="M0 0 C6.95041086 -0.26618595 13.23514355 0.3879491 20 2 C20 6.03183815 18.58690342 6.90770743 15.8125 9.75 C15.03519531 10.56984375 14.25789062 11.3896875 13.45703125 12.234375 C11 14 11 14 8.40625 14.10546875 C5.09448161 12.58399074 4.31012717 10.78679016 2.6875 7.5625 C2.17574219 6.57378906 1.66398438 5.58507812 1.13671875 4.56640625 C0 2 0 2 0 0 Z " fill="#575757" transform="translate(133,81)"/>
<path d="M0 0 C2.6877438 0.14209669 5.37513302 0.2885723 8.0625 0.4375 C8.81466797 0.47681641 9.56683594 0.51613281 10.34179688 0.55664062 C14.94698741 0.81580719 19.44366724 1.2799421 24 2 C23.67 4.31 23.34 6.62 23 9 C19.20710763 8.72303604 15.41605868 8.42594897 11.625 8.125 C10.54476562 8.04636719 9.46453125 7.96773437 8.3515625 7.88671875 C7.3203125 7.80292969 6.2890625 7.71914063 5.2265625 7.6328125 C4.27346191 7.55949707 3.32036133 7.48618164 2.33837891 7.41064453 C0 7 0 7 -2 5 C-1.34 3.35 -0.68 1.7 0 0 Z " fill="#9A9A9A" transform="translate(160,43)"/>
<path d="M0 0 C13.6886433 0.57440812 27.26140832 1.98829583 40.87158203 3.52905273 C44.54746038 3.94284257 48.2247831 4.34170619 51.90234375 4.74023438 C54.23708035 5.00170225 56.57171987 5.2640388 58.90625 5.52734375 C60.00706909 5.6451268 61.10788818 5.76290985 62.24206543 5.88426208 C63.75129578 6.05938072 63.75129578 6.05938072 65.29101562 6.23803711 C66.17905884 6.33716904 67.06710205 6.43630096 67.98205566 6.53843689 C68.98093811 6.76691063 68.98093811 6.76691063 70 7 C70.495 7.99 70.495 7.99 71 9 C62.44551283 9.27874172 54.09793003 8.20711088 45.625 7.1875 C44.0758332 7.00495389 42.52659723 6.82299396 40.97729492 6.64160156 C38.62159031 6.3657012 36.26593772 6.08941927 33.9105072 5.81118774 C26.38165886 4.92212791 18.84798517 4.0808408 11.3125 3.25 C9.58604248 3.05893677 9.58604248 3.05893677 7.82470703 2.86401367 C5.21653232 2.57545224 2.60830073 2.28741971 0 2 C0 1.34 0 0.68 0 0 Z " fill="#767676" transform="translate(146,59)"/>
<path d="M0 0 C0.33 0.66 0.66 1.32 1 2 C3.42811919 2.38170386 5.76561888 2.63606013 8.2109375 2.81640625 C9.29684677 2.9084861 9.29684677 2.9084861 10.4046936 3.00242615 C12.72749122 3.19804316 15.05106691 3.38091274 17.375 3.5625 C19.69157065 3.74962241 22.00786517 3.93944046 24.32388306 4.13328552 C25.76702742 4.25343242 27.21053143 4.36935008 28.65438843 4.48060608 C31.62534571 4.72259016 34.15774299 5.052581 37 6 C37 6.99 37 7.98 37 9 C29.37812913 9.19219482 22.09968119 8.67471274 14.5625 7.5625 C13.59634766 7.42779297 12.63019531 7.29308594 11.63476562 7.15429688 C7.69809273 6.59503288 3.84584076 6.02515227 0 5 C0 3.35 0 1.7 0 0 Z " fill="#949494" transform="translate(143,68)"/>
<path d="M0 0 C-0.66 2.97 -1.32 5.94 -2 9 C-8.11485027 9.09706112 -13.93303301 8.77040851 -20 8 C-14.0823758 1.36508801 -8.61281144 -0.45330587 0 0 Z " fill="#9D9D9D" transform="translate(190,3)"/>
<path d="M0 0 C2.10478604 0.11409682 4.20884577 0.24165361 6.3125 0.375 C7.48425781 0.44460937 8.65601563 0.51421875 9.86328125 0.5859375 C13 1 13 1 16 3 C10.98910469 8.74419706 10.98910469 8.74419706 6.375 9.9375 C3 10 3 10 -1 9 C-0.67 6.03 -0.34 3.06 0 0 Z " fill="#333333" transform="translate(179,78)"/>
<path d="M0 0 C32.72067803 3.16887304 32.72067803 3.16887304 45 5 C45 5.66 45 6.32 45 7 C34.87500207 7.31602898 25.18942144 6.34760827 15.1875 5 C13.70517688 4.80653354 12.22275517 4.61382088 10.74023438 4.421875 C7.15898188 3.95656951 3.57915736 3.48118822 0 3 C0 2.01 0 1.02 0 0 Z " fill="#777777" transform="translate(152,39)"/>
<path d="M0 0 C5.44693314 -0.09688221 10.63904667 -0.12862175 16 1 C14.22054913 5.04420651 11.60470327 8.46078487 9 12 C5.19680631 10.73226877 4.7757663 9.41269006 2.8125 6 C2.28269531 5.0925 1.75289062 4.185 1.20703125 3.25 C0 1 0 1 0 0 Z " fill="#464646" transform="translate(202,90)"/>
<path d="M0 0 C1.670625 0.061875 1.670625 0.061875 3.375 0.125 C3.375 3.125 3.375 3.125 1.984375 4.58984375 C1.37078125 5.07582031 0.7571875 5.56179687 0.125 6.0625 C-2.07157781 7.83036947 -3.91857832 9.45213012 -5.8125 11.5625 C-6.410625 12.078125 -7.00875 12.59375 -7.625 13.125 C-9.875 12.875 -9.875 12.875 -11.625 12.125 C-6.12634771 0.21125337 -6.12634771 0.21125337 0 0 Z " fill="#444444" transform="translate(221.625,91.875)"/>
<path d="M0 0 C6.40695318 -0.20339534 12.5828616 0.18894342 18.9375 0.9375 C19.68314209 1.02435059 20.42878418 1.11120117 21.19702148 1.20068359 C24.26704265 1.57914581 27.05741122 2.01913707 30 3 C30 3.66 30 4.32 30 5 C19.86885065 4.53894171 9.99700135 3.7907672 0 2 C0 1.34 0 0.68 0 0 Z " fill="#767676" transform="translate(90,104)"/>
<path d="M0 0 C3.3 0.33 6.6 0.66 10 1 C10 1.33 10 1.66 10 2 C8.35 2 6.7 2 5 2 C4.566875 2.8971875 4.566875 2.8971875 4.125 3.8125 C3 6 3 6 1 9 C1.66 9.33 2.32 9.66 3 10 C1.63016497 13.16115776 1.0109362 13.9927092 -2 16 C-6 10.25 -6 10.25 -6 8 C-4.34928604 6.97388051 -2.68029994 5.97691857 -1 5 C0.75149165 3.41754725 0.75149165 3.41754725 2 2 C1.34 1.34 0.68 0.68 0 0 Z " fill="#505050" transform="translate(192,79)"/>
<path d="M0 0 C6.60363084 -0.25183338 13.01618013 0.11773296 19.5625 0.9375 C20.61630859 1.06777588 20.61630859 1.06777588 21.69140625 1.20068359 C26.73321116 1.86660558 26.73321116 1.86660558 29 3 C29 3.66 29 4.32 29 5 C25.66647575 4.68951584 22.33321919 4.37624092 19 4.0625 C18.06542969 3.97548828 17.13085938 3.88847656 16.16796875 3.79882812 C10.76426653 3.28868841 5.38188093 2.7044679 0 2 C0 1.34 0 0.68 0 0 Z " fill="#767676" transform="translate(161,22)"/>
<path d="M0 0 C3.63 0.66 7.26 1.32 11 2 C8.47031062 5.88488011 5.92251873 9.34685159 3 13 C2.01 8.71 1.02 4.42 0 0 Z " fill="#999999" transform="translate(69,72)"/>
<path d="M0 0 C0.33 0.99 0.66 1.98 1 3 C3.64 3 6.28 3 9 3 C9.33 3.66 9.66 4.32 10 5 C9.01 6.485 9.01 6.485 8 8 C5.1796875 8.29296875 5.1796875 8.29296875 1.875 8.1875 C0.23144531 8.14689453 0.23144531 8.14689453 -1.4453125 8.10546875 C-2.28835937 8.07066406 -3.13140625 8.03585938 -4 8 C-2.68 5.36 -1.36 2.72 0 0 Z " fill="#9B9B9B" transform="translate(160,21)"/>
<path d="M0 0 C18.34042553 0.80851064 18.34042553 0.80851064 27 3 C26.67 3.66 26.34 4.32 26 5 C22.60376001 4.69182184 19.20809553 4.37769353 15.8125 4.0625 C14.85279297 3.97548828 13.89308594 3.88847656 12.90429688 3.79882812 C11.97294922 3.71181641 11.04160156 3.62480469 10.08203125 3.53515625 C9.22843018 3.456604 8.3748291 3.37805176 7.49536133 3.29711914 C4.9595574 2.99518456 2.49640053 2.53368625 0 2 C0 1.34 0 0.68 0 0 Z " fill="#767676" transform="translate(156,29)"/>
<path d="M0 0 C3.96 0.33 7.92 0.66 12 1 C12 1.66 12 2.32 12 3 C11.34 3 10.68 3 10 3 C10 3.66 10 4.32 10 5 C9.34 5 8.68 5 8 5 C7.67 5.99 7.34 6.98 7 8 C5.1875 7.8125 5.1875 7.8125 3 7 C0 2.82142857 0 2.82142857 0 0 Z " fill="#818181" transform="translate(255,96)"/>
<path d="M0 0 C1.216875 0.268125 2.43375 0.53625 3.6875 0.8125 C3.06875 1.10125 2.45 1.39 1.8125 1.6875 C-0.44575765 2.74970042 -0.44575765 2.74970042 -2.3125 4.8125 C-4.9375 4.9375 -4.9375 4.9375 -7.3125 4.8125 C-7.3125 5.4725 -7.3125 6.1325 -7.3125 6.8125 C-4.3425 6.8125 -1.3725 6.8125 1.6875 6.8125 C1.6875 7.1425 1.6875 7.4725 1.6875 7.8125 C-0.9525 7.8125 -3.5925 7.8125 -6.3125 7.8125 C-6.3125 8.4725 -6.3125 9.1325 -6.3125 9.8125 C-7.9625 9.8125 -9.6125 9.8125 -11.3125 9.8125 C-9.47035512 3.95112991 -6.64541526 -0.83508758 0 0 Z " fill="#959595" transform="translate(172.3125,12.1875)"/>
<path d="M0 0 C8.46204771 -0.30221599 16.63745983 0.85079203 25 2 C25 2.66 25 3.32 25 4 C16.4488728 4.27733386 8.41518047 3.52016163 0 2 C0 1.34 0 0.68 0 0 Z " fill="#747474" transform="translate(165,17)"/>
<path d="M0 0 C2.97 0.33 5.94 0.66 9 1 C8.360625 1.78375 7.72125 2.5675 7.0625 3.375 C5.01857687 5.79539281 5.01857687 5.79539281 4 8 C2.35 8 0.7 8 -1 8 C-1.125 2.25 -1.125 2.25 0 0 Z " fill="#ABABAB" transform="translate(152,51)"/>
<path d="M0 0 C7.85546636 -0.31918373 15.26940505 0.64290496 23 2 C23 2.66 23 3.32 23 4 C20.47891897 3.85775413 17.95819597 3.71129879 15.4375 3.5625 C14.73302734 3.52318359 14.02855469 3.48386719 13.30273438 3.44335938 C8.8201459 3.17481721 4.43706503 2.69383803 0 2 C0 1.34 0 0.68 0 0 Z " fill="#747474" transform="translate(169,11)"/>
<path d="M0 0 C6.69007182 0.52405563 13.3487487 1.10463925 20 2 C20 2.66 20 3.32 20 4 C13.56688704 4.09507063 7.34241995 4.15316726 1 3 C0.67 2.01 0.34 1.02 0 0 Z " fill="#767676" transform="translate(89,97)"/>
<path d="M0 0 C1.4540625 0.0309375 1.4540625 0.0309375 2.9375 0.0625 C1.0625 5.8125 1.0625 5.8125 -0.0625 8.0625 C-3.0325 7.5675 -3.0325 7.5675 -6.0625 7.0625 C-3.83347902 0.07823427 -3.83347902 0.07823427 0 0 Z " fill="#ABABAB" transform="translate(162.0625,31.9375)"/>
<path d="M0 0 C2.31 0 4.62 0 7 0 C6.01 0.495 6.01 0.495 5 1 C4.53476937 2.89533342 4.53476937 2.89533342 4.375 5.0625 C4.189375 7.0115625 4.189375 7.0115625 4 9 C2.35 9 0.7 9 -1 9 C-0.67 6.03 -0.34 3.06 0 0 Z " fill="#9A9A9A" transform="translate(147,50)"/>
<path d="M0 0 C3.96 0 7.92 0 12 0 C11.67 1.32 11.34 2.64 11 4 C6.83861737 4.08159574 3.0527516 3.98248524 -1 3 C-0.67 2.01 -0.34 1.02 0 0 Z " fill="#8D8D8D" transform="translate(198,77)"/>
<path d="M0 0 C3.3 0 6.6 0 10 0 C7.57142857 4.85714286 7.57142857 4.85714286 5 7 C4.34 7 3.68 7 3 7 C0 2.61538462 0 2.61538462 0 0 Z " fill="#979797" transform="translate(92,76)"/>
<path d="M0 0 C0.66 0.33 1.32 0.66 2 1 C2 1.99 2 2.98 2 4 C0.35546875 5.5 0.35546875 5.5 -1.8125 7 C-4.44859162 8.84382365 -6.78947857 10.65698675 -9 13 C-9.66 12.34 -10.32 11.68 -11 11 C-7.37 7.37 -3.74 3.74 0 0 Z " fill="#A5A5A5" transform="translate(175,100)"/>
<path d="M0 0 C0.66 0.66 1.32 1.32 2 2 C0.92173635 3.27513763 -0.16285519 4.54492569 -1.25 5.8125 C-1.85328125 6.52019531 -2.4565625 7.22789063 -3.078125 7.95703125 C-4.93811214 9.9342127 -6.73103544 11.51392197 -9 13 C-9.66 13 -10.32 13 -11 13 C-9.46356148 9.31930113 -7.21849055 7.01224796 -4.375 4.25 C-3.55773437 3.45078125 -2.74046875 2.6515625 -1.8984375 1.828125 C-0.95871094 0.92320313 -0.95871094 0.92320313 0 0 Z " fill="#999999" transform="translate(232,109)"/>
<path d="M0 0 C2.64 0.33 5.28 0.66 8 1 C7.01 4.3 6.02 7.6 5 11 C0 3.5 0 3.5 0 0 Z " fill="#7F7F7F" transform="translate(277,99)"/>
<path d="M0 0 C3.3 0 6.6 0 10 0 C8.11656068 3.76687864 7.30867531 4.79421646 4 7 C2.02 3.535 2.02 3.535 0 0 Z " fill="#848484" transform="translate(232,94)"/>
<path d="M0 0 C0 2.31 0 4.62 0 7 C-2.64 7 -5.28 7 -8 7 C-6.13932792 2.84926997 -4.83061881 0 0 0 Z " fill="#A6A6A6" transform="translate(181,64)"/>
<path d="M0 0 C2.53541298 0.09086451 5.03554784 0.2370945 7.5625 0.4375 C8.62887695 0.51581055 8.62887695 0.51581055 9.71679688 0.59570312 C11.47821999 0.72574107 13.23916173 0.86226897 15 1 C15.33 1.99 15.66 2.98 16 4 C13.54066009 3.88630789 11.0832091 3.75957349 8.625 3.625 C7.92632812 3.5940625 7.22765625 3.563125 6.5078125 3.53125 C1.2265625 3.2265625 1.2265625 3.2265625 -1 1 C-0.67 0.67 -0.34 0.34 0 0 Z " fill="#747474" transform="translate(201,45)"/>
<path d="M0 0 C1.65 0 3.3 0 5 0 C5 2.31 5 4.62 5 7 C3.02 7 1.04 7 -1 7 C-0.67 4.69 -0.34 2.38 0 0 Z " fill="#AAAAAA" transform="translate(150,61)"/>
<path d="M0 0 C1.32 0.66 2.64 1.32 4 2 C2.68 2.33 1.36 2.66 0 3 C-0.103125 3.598125 -0.20625 4.19625 -0.3125 4.8125 C-1.47911352 8.52445211 -3.82119418 9.88079612 -7 12 C-7 7.41765954 -6.4819242 6.94491878 -3.5 3.75 C-2.8503125 3.04359375 -2.200625 2.3371875 -1.53125 1.609375 C-0.77328125 0.81273438 -0.77328125 0.81273438 0 0 Z " fill="#4E4E4E" transform="translate(253,87)"/>
<path d="M0 0 C6.75 -0.125 6.75 -0.125 9 1 C7.63016497 4.16115776 7.0109362 4.9927092 4 7 C2.02 3.535 2.02 3.535 0 0 Z " fill="#868686" transform="translate(186,88)"/>
<path d="M0 0 C4.51617599 -0.07654536 8.59085217 -0.10228696 13 1 C12.01 2.485 12.01 2.485 11 4 C7.7 3.67 4.4 3.34 1 3 C0.67 2.01 0.34 1.02 0 0 Z " fill="#828282" transform="translate(175,119)"/>
<path d="M0 0 C0.99 0.66 1.98 1.32 3 2 C2.34 2 1.68 2 1 2 C1 2.66 1 3.32 1 4 C-2.65194857 8.7931825 -2.65194857 8.7931825 -6.11328125 9.32421875 C-8.07846681 9.31374707 -10.04180568 9.16594867 -12 9 C-12 8.67 -12 8.34 -12 8 C-10.700625 7.690625 -10.700625 7.690625 -9.375 7.375 C-5.07882294 5.62470564 -3.10989527 3.40607577 0 0 Z " fill="#A8A8A8" transform="translate(135,107)"/>
<path d="M0 0 C2.97 0 5.94 0 9 0 C7.75453595 3.73639216 6.36595047 4.18756513 3 6 C0 2.25 0 2.25 0 0 Z " fill="#949494" transform="translate(116,79)"/>
<path d="M0 0 C2.64 0 5.28 0 8 0 C6.95125002 2.62187494 6.35068687 3.79371361 3.875 5.25 C3.25625 5.4975 2.6375 5.745 2 6 C1.34 4.02 0.68 2.04 0 0 Z " fill="#868686" transform="translate(210,91)"/>
<path d="M0 0 C2.97 0.33 5.94 0.66 9 1 C7.37660195 2.70884005 5.70680947 4.37446717 4 6 C3.34 6 2.68 6 2 6 C0 3 0 3 0 0 Z " fill="#919191" transform="translate(162,84)"/>
<path d="M0 0 C-0.66 1.98 -1.32 3.96 -2 6 C-3.65 5.67 -5.3 5.34 -7 5 C-7 3.68 -7 2.36 -7 1 C-4.53721199 -0.231394 -2.7204945 -0.07159196 0 0 Z " fill="#AAAAAA" transform="translate(160,43)"/>
<path d="M0 0 C0.33 0.66 0.66 1.32 1 2 C3.35599235 2.46751788 3.35599235 2.46751788 6.0625 2.625 C7.44115234 2.73714844 7.44115234 2.73714844 8.84765625 2.8515625 C9.55792969 2.90054688 10.26820313 2.94953125 11 3 C10.01 4.485 10.01 4.485 9 6 C6.03 5.67 3.06 5.34 0 5 C0 3.35 0 1.7 0 0 Z " fill="#9E9E9E" transform="translate(143,68)"/>
<path d="M0 0 C0.66 0 1.32 0 2 0 C1.66086666 3.16524451 1.02752805 3.97600118 -1.4375 6.125 C-2.283125 6.74375 -3.12875 7.3625 -4 8 C-4.66 8.66 -5.32 9.32 -6 10 C-6 8.68 -6 7.36 -6 6 C-3.5625 3.875 -3.5625 3.875 -1 2 C-0.67 1.34 -0.34 0.68 0 0 Z " fill="#A5A5A5" transform="translate(155,87)"/>
<path d="M0 0 C0.66 0.66 1.32 1.32 2 2 C1.07347299 3.17539996 0.13336613 4.34010577 -0.8125 5.5 C-1.33457031 6.1496875 -1.85664063 6.799375 -2.39453125 7.46875 C-4 9 -4 9 -7 9 C-5.44499019 5.18315774 -2.96404505 2.80804268 0 0 Z " fill="#999999" transform="translate(206,36)"/>
<path d="M0 0 C2.31 0 4.62 0 7 0 C6.34 1.32 5.68 2.64 5 4 C2.69 4 0.38 4 -2 4 C-1.34 2.68 -0.68 1.36 0 0 Z " fill="#ABABAB" transform="translate(163,25)"/>
<path d="M0 0 C0.66 0.33 1.32 0.66 2 1 C-1.07881696 4.87051275 -4.00073014 8.02911382 -8 11 C-8.66 10.34 -9.32 9.68 -10 9 C-9.44570313 8.51789063 -8.89140625 8.03578125 -8.3203125 7.5390625 C-7.59585937 6.90742187 -6.87140625 6.27578125 -6.125 5.625 C-5.40570313 4.99851562 -4.68640625 4.37203125 -3.9453125 3.7265625 C-2.5923402 2.52573166 -1.2791655 1.2791655 0 0 Z " fill="#999999" transform="translate(271,104)"/>
<path d="M0 0 C2.31 0 4.62 0 7 0 C6.1875 1.9375 6.1875 1.9375 5 4 C4.01 4.33 3.02 4.66 2 5 C1.34 3.35 0.68 1.7 0 0 Z " fill="#959595" transform="translate(140,82)"/>
<path d="M0 0 C0.33 0 0.66 0 1 0 C1 3.96 1 7.92 1 12 C-0.98 12.99 -0.98 12.99 -3 14 C-3 13.01 -3 12.02 -3 11 C-2.34 10.67 -1.68 10.34 -1 10 C-0.53248212 7.64400765 -0.53248212 7.64400765 -0.375 4.9375 C-0.30023438 4.01839844 -0.22546875 3.09929688 -0.1484375 2.15234375 C-0.09945312 1.44207031 -0.05046875 0.73179688 0 0 Z " fill="#959595" transform="translate(217,50)"/>
<path d="M0 0 C3.625 -0.1875 3.625 -0.1875 7 0 C6.67 0.99 6.34 1.98 6 3 C3.36 3 0.72 3 -2 3 C-1.34 2.01 -0.68 1.02 0 0 Z " fill="#AAAAAA" transform="translate(172,14)"/>
<path d="M0 0 C2.125 0.375 2.125 0.375 4 1 C1.6875 3.5 1.6875 3.5 -1 6 C-1.99 6 -2.98 6 -4 6 C-2.84826645 3.53199953 -1.95216435 1.95216435 0 0 Z " fill="#A6A6A6" transform="translate(116,93)"/>
<path d="M0 0 C0.99 0.33 1.98 0.66 3 1 C1.35 2.65 -0.3 4.3 -2 6 C-2.66 5.67 -3.32 5.34 -4 5 C-2.25 1.125 -2.25 1.125 0 0 Z " fill="#5F5F5F" transform="translate(79,65)"/>
<path d="M0 0 C0.33 0 0.66 0 1 0 C1 2.31 1 4.62 1 7 C-0.98 7 -2.96 7 -5 7 C-4.0409375 6.1028125 -4.0409375 6.1028125 -3.0625 5.1875 C-0.79689611 3.09189663 -0.79689611 3.09189663 0 0 Z " fill="#9B9B9B" transform="translate(180,64)"/>
<path d="M0 0 C2.31 0 4.62 0 7 0 C6.01 1.485 6.01 1.485 5 3 C4.34 3 3.68 3 3 3 C2.67 3.66 2.34 4.32 2 5 C1.34 3.35 0.68 1.7 0 0 Z " fill="#5E5E5E" transform="translate(155,84)"/>
<path d="M0 0 C0.99 0 1.98 0 3 0 C1.86695008 3.39914975 0.87481525 4.05254451 -2 6 C-2 2 -2 2 0 0 Z " fill="#A5A5A5" transform="translate(165,44)"/>
</svg>
